<?xml version="1.0" encoding="utf-8"?>
<!-- Generator: Adobe Illustrator 12.0.0, SVG Export Plug-In  -->
<!DOCTYPE svg PUBLIC "-//W3C//DTD SVG 1.1//EN" "http://www.w3.org/Graphics/SVG/1.1/DTD/svg11.dtd" [
	<!ENTITY ns_flows "http://ns.adobe.com/Flows/1.0/">
	<!ENTITY ns_svg "http://www.w3.org/2000/svg">
	<!ENTITY ns_xlink "http://www.w3.org/1999/xlink">
]>
<svg  version="1.1" xmlns="&ns_svg;" xmlns:xlink="&ns_xlink;" xmlns:a="http://ns.adobe.com/AdobeSVGViewerExtensions/3.0/"
	 width="382" height="48" viewBox="-0.808 -0.898 382 48" enable-background="new -0.808 -0.898 382 48" xml:space="preserve">
<defs>
</defs>
<g opacity="0.44">
	<line fill="#E60012" x1="0" y1="38.735" x2="380.329" y2="38.735"/>
	<g>
		<line fill="none" x1="0" y1="38.735" x2="380.329" y2="38.735"/>
		<g>
			<path fill="#FFF100" d="M370.958,36.235c0.859-0.056,1.611,0.255,1.287,0.395c1.754-0.376,1.791,0.052,2.016-0.678
				c1.127-0.358,2.326,0.138,1.047,0.434l3.246-0.446l-1.941-0.114c0.529-0.605,3.102,0.182,3.717-0.525l-3.514,0.06l0.176-0.202
				c-0.801,0.218-2.354,0.127-2.895,0.042c0.084-0.1,0.029-0.263,0.648-0.279c-4.24-0.047-1.141,1.061-4.658,1.262
				C370.306,36.167,370.579,36.174,370.958,36.235z"/>
			<path fill="#FFF100" d="M367.354,34.751l-1.48,0.759l-2.48-0.195c-0.027,0.262-1.836,0.475-0.613,0.705
				c0.24-0.04,0.715-0.119,1.098-0.095c-0.279,0.567-3.303,0.283-2.572,0.858c1.963-0.151,2.264-0.026,3.473-0.487
				c1.799,0.054,3.109,0.184,3.949,0.391c0.533-0.087,0.609-0.434,1.287-0.503l-0.461,0.021l-0.072-0.854
				c-0.566,0.18-1.104,0.095-1.73,0.112l2.904-0.997c-0.936-0.798-3.789-0.329-4.932-0.661
				C367.14,34.524,364.599,34.164,367.354,34.751z"/>
			<path fill="#FFF100" d="M370.015,36.184l0.072-0.003L370.015,36.184z"/>
			<path fill="#FFF100" d="M152.978,41.148c-0.618,0.016-0.8,0.217-0.888,0.318l6.953-0.017c-0.218-0.224-2.221-0.501-0.882-0.635
				c-0.597-0.248-2.414-0.036-2.677,0.267l0.503-0.342c-1.603,0.438-2.698-0.423-1.652-0.681l-0.135,0.005l-4.438,1.686
				C151.392,41.847,151.017,41.169,152.978,41.148z"/>
			<path fill="#FFF100" d="M10.163,40.291c0.901-0.078,1.01-0.159,0.908-0.242L10.163,40.291z"/>
			<path fill="#FFF100" d="M148.726,42.143l-1.391,0.527C147.893,42.529,148.381,42.339,148.726,42.143z"/>
			<polygon fill="#FFF100" points="158.356,34.125 158.337,34.034 157.712,34.303 157.729,34.303 			"/>
			<path fill="#FFF100" d="M117.171,44.125l-0.454,0.036L117.171,44.125z"/>
			<path fill="#FFF100" d="M177.193,31.112l-3.092,0.506c0.413-0.239-1.08-0.168-0.428-0.447c-0.236,0.038-1.34,0.133-1.04,0.256
				l0.63-0.017c-1.629,0.701-0.642,0.971-3.345,1.503c1.678,0.416,2.414,0.035,3.304-0.283l0.807-0.097l2.572-0.978L177.193,31.112z
				"/>
			<path fill="#FFF100" d="M53.243,36.32l0.034-0.057L53.243,36.32z"/>
			<path fill="#FFF100" d="M53.412,36.041l-0.135,0.223C53.442,36.153,54.081,36.045,53.412,36.041z"/>
			<path fill="#FFF100" d="M149.237,41.691c-0.043,0.13-0.222,0.289-0.511,0.452l1.037-0.394L149.237,41.691z"/>
			<path fill="#FFF100" d="M151.595,40.164l2.605-0.1l0.961-0.363C154.163,39.838,152.999,39.932,151.595,40.164z"/>
			<path fill="#FFF100" d="M121.286,44.536c-5.395,0.107,1.325-0.823-1.154-1.021c-1.496,0.097-2.025,0.489-2.96,0.61
				c4.28-0.334-0.578,1.285,3.736,1.08c-0.614,0.706-3.113,0.771-4.577,0.579c-1.656-0.681,1.449-0.499,1.825-1.166
				c-1.731,0.109-1.427,0.234-2.163,0.614c-2.718-0.159-5.626,0.837-7.25-0.107c-1.967,0.15-1.838,0.476-2.97,0.836
				c-0.225,0.728,2.928,0.382,3.657,0.957c-0.15-0.063-0.447-0.186-0.36-0.288l1.701,0.154c-1.614-0.255,0.225-0.729,1.089-0.786
				c0.627-0.017,1.875-0.049,1.704,0.153l-0.952,0.156c1.226,0.23,2.701-0.531,3.993-0.137c0.068,0.165-0.42,0.239-0.496,0.343
				c1.449-0.498,2.846-0.469,4.99-0.821l-1.243,0.724c1.714-0.801,5.598-0.573,8.288-0.152c-0.299-0.121-0.835-0.207-0.513-0.346
				c1.581-0.174,2.774,0.322,2.042,0.703c1.543-0.601,5.883,0.505,7.987-0.274l9.675-3.676l-1.151,0.199
				c-0.878-0.635-1.352-0.558,0.188-1.156c-1.513,0.336-0.935,0.846-3.207,0.872c0.89-0.319,1.115-1.048-1.063-1.123
				c-5.443,0.635-9.051,2.438-14.135,3.361c-0.188-0.488-4.178-0.353-6.12-0.467c0.74-0.525,2.182-0.675,3.676-0.781
				c-0.938-0.033-2.553-0.047-3.75-0.07L121.286,44.536z"/>
			<path fill="#FFF100" d="M133.927,42.891l-0.42-0.09C133.582,42.841,133.709,42.873,133.927,42.891z"/>
			<path fill="#FFF100" d="M125.979,43.59l0.019-0.053l-0.473,0.038C125.684,43.58,125.866,43.585,125.979,43.59z"/>
			<path fill="#FFF100" d="M147.96,40.586l0.886-0.318l-0.69,0.127C147.927,40.461,147.818,40.527,147.96,40.586z"/>
			<path fill="#FFF100" d="M149.049,41.447l-0.173,0.201l0.36,0.043C149.274,41.583,149.233,41.492,149.049,41.447z"/>
			<path fill="#FFF100" d="M100.671,40.113l-0.518,0.106C100.465,40.21,100.598,40.167,100.671,40.113z"/>
			<path fill="#FFF100" d="M115.275,43.706c1.877-0.049,0.226-0.73,2.88-0.734l-0.779-0.045c1.905-0.312,5.25-0.168,7.514-0.194
				c-0.255,0.292,1.373,0.354,1.108,0.806c1.546-0.105,3.078-0.206,3.874-0.673c0.959,0.153,2.414-0.257,3.634-0.063
				c-0.514-0.273,1.734-0.923-1.231-0.591c0.24-0.037,0.09-0.1,0.327-0.138c-1.911-0.381-2.677,0.266-4.321,0.274
				c-0.983-0.271,1.607-0.437,0.68-0.544c-2.054,0.252-6.446-0.324-6.311,0.689c-1.494,0.072-1.701-0.151-2.147-0.337
				c-2.365,1.081-8.777-0.464-8.755,0.917c0.861-0.054,2.27-0.024,3.537-0.319L115.275,43.706z"/>
			<path fill="#FFF100" d="M144.809,40.657l-0.364-0.014L144.809,40.657z"/>
			<path fill="#FFF100" d="M166.773,44.768c0.188-0.199,0.387-0.438-0.679-0.411c-2.147-0.339-3.326,0.548-4.881,0.458l0.479-0.078
				c-1.462-0.194-3.34-0.146-4.466,0.215c-1.181-0.761,4.229-0.177,1.952-0.841c1.616,0.252,3.929-0.301,5.181-0.332
				c-2.093-0.177-3.894-0.92-3.304-1.361c-4.494,0.479,0,1.646-3.931,1.942l-2.716-0.158l-0.94,0.847
				c-1.633,0.01,1.002-0.684-1.498-0.619c-0.68,0.395-2.298,0.033-2.79,0.293c0.067-0.191,0.101-0.401-1.183-0.421
				c-0.086,0.103,0.03,0.426-0.98,0.421c-0.694-0.837,2.592-0.166,1.416-0.925c-3.041-0.021-1.714,0.802-2.365,1.081
				c0.09-0.103,0.24-0.039,0.627-0.019c-0.026,0.269-1.252,0.035-1.123,0.359c0.49,0.03,0.976-0.049,1.4-0.129
				c-0.867,0.267,1.427,0.553,2.301,0.561c1.997-0.415,6.106-0.226,8.853-0.33c-0.24,0.039-0.713,0.118-0.415,0.242
				c3.906-0.036,5.521,0.218,9.988,0.002l0.785-0.904C168.483,44.474,167.676,44.639,166.773,44.768z M164.735,44.754l1.426,0.085
				C165.605,44.89,165.072,44.895,164.735,44.754z"/>
			<path fill="#FFF100" d="M347.388,34.86l0.434,0.069C347.726,34.89,347.563,34.873,347.388,34.86z"/>
			<path fill="#FFF100" d="M220.681,34.536l0.826,0.028C221.184,34.536,220.921,34.531,220.681,34.536z"/>
			<path fill="#FFF100" d="M239.239,31.736l1.209-0.198C239.97,31.551,239.597,31.629,239.239,31.736z"/>
			<polygon fill="#FFF100" points="337.53,34.802 337.489,34.796 337.298,34.841 			"/>
			<path fill="#FFF100" d="M276.462,33.719c0.184,0.071,0.391,0.137,0.672,0.186C277.101,33.821,276.849,33.76,276.462,33.719z"/>
			<polygon fill="#FFF100" points="239.017,31.773 239.09,31.789 239.239,31.736 			"/>
			<path fill="#FFF100" d="M212.506,32.064l-0.529,0.084C212.226,32.131,212.38,32.1,212.506,32.064z"/>
			<path fill="#FFF100" d="M213.671,34.466l-0.514,0.085L213.671,34.466z"/>
			<path fill="#FFF100" d="M185.079,32.82l-1.115,0.12C184.512,32.926,184.839,32.88,185.079,32.82z"/>
			<path fill="#FFF100" d="M210.725,33.911l-0.173,0.116C210.706,34.001,210.781,33.952,210.725,33.911z"/>
			<polygon fill="#FFF100" points="354.462,37.387 354.394,37.39 354.368,37.489 			"/>
			<path fill="#FFF100" d="M357.169,36.153l0.979-0.069C357.784,36.077,357.431,36.104,357.169,36.153z"/>
			<path fill="#FFF100" d="M292.632,35.083c0.295,0.122,0.986,0.269,0.662,0.408C293.86,35.315,293.821,34.886,292.632,35.083z"/>
			<path fill="#FFF100" d="M349.034,42.692l0.621-0.288C349.243,42.528,348.88,42.629,349.034,42.692z"/>
			<path fill="#FFF100" d="M349.655,42.404l0.604-0.191L349.655,42.404z"/>
			<path fill="#FFF100" d="M285.134,42.118c-0.074-0.059-0.188-0.107-0.34-0.122C284.839,42.111,284.96,42.135,285.134,42.118z"/>
			<path fill="#FFF100" d="M358.937,36.218c0.176-0.202,4.43-0.642,0.852-0.744c0.139-0.631,2.295-0.291,3.248-0.446
				c-0.691-0.147,0.346-0.403,0.135-0.629c-0.473,0.076-1.035,0.257-1.816,0.212c-0.361-0.287,0.826-0.482,1.754-0.375
				c-1.143-0.332,1.449-0.499-0.168-0.753c-3.451,0.222-5.895,0.451-8.32,1.369c1.967-0.15,4.17-0.339,5.783-0.086l-0.678,0.544
				c-1.824-0.479-2.951-0.122-4.746-0.172l4.033,0.288c1.885,0.454,0.623,0.559-0.865,0.657
				C358.513,36.089,358.845,36.123,358.937,36.218z"/>
			<polygon fill="#FFF100" points="356.222,40.992 356.29,41.006 356.458,40.953 			"/>
			<path fill="#FFF100" d="M185.284,43.829l-0.347,0.205C185.226,43.94,185.315,43.878,185.284,43.829z"/>
			<path fill="#FFF100" d="M353.815,38.357h0.004H353.815z"/>
			<path fill="#FFF100" d="M193.898,43.87l-0.045,0.048L193.898,43.87z"/>
			<path fill="#FFF100" d="M196.203,32.139l-0.06-0.072C195.959,32.097,196.049,32.123,196.203,32.139z"/>
			<path fill="#FFF100" d="M193.905,43.82l-0.007,0.05L193.905,43.82z"/>
			<path fill="#FFF100" d="M235.799,41.821c0,0-0.131-0.094-0.342-0.183C235.379,41.688,235.458,41.748,235.799,41.821z"/>
			<polygon fill="#FFF100" points="227.529,41.016 227.529,41.016 227.378,40.957 			"/>
			<path fill="#FFF100" d="M290.677,32.632c-0.41-0.008-0.717,0.006-0.977,0.028L290.677,32.632z"/>
			<path fill="#FFF100" d="M193.853,43.917c-0.086,0.057-0.21,0.116-0.413,0.189C193.663,44.029,193.782,43.969,193.853,43.917z"/>
			<polygon fill="#FFF100" points="248.409,39.073 248.155,39.133 248.305,39.161 			"/>
			<path fill="#FFF100" d="M252.724,39.474c-0.146,0.062-0.214,0.126-0.297,0.182c1.539-0.227,4.37,0.019,4.704-0.559
				c-0.523,0.014-3.232-0.326-2.771-0.665c-1.074,0.145-2.662-0.262-3.24-0.166c1.765,0.317,0.191,0.488-0.998,0.683
				c-1.082-0.168,0.202-0.464-0.729-0.57l-2.504,0.062l2.181,0.078l-0.662,0.555l0.223-0.053
				C252.322,38.76,248.944,39.835,252.724,39.474z"/>
			<path fill="#FFF100" d="M252.427,39.656c-0.232,0.035-0.436,0.077-0.593,0.137C252.183,39.784,252.319,39.727,252.427,39.656z"/>
			<path fill="#FFF100" d="M267.503,40.573c0.189-0.018,0.396-0.044,0.654-0.088C268.034,40.506,267.749,40.534,267.503,40.573z"/>
			<path fill="#FFF100" d="M157.012,39.792c0.063,0.164,2.213,0.502,2.175,0.073l0,0l-1.928-0.134L157.012,39.792z"/>
			<path fill="#FFF100" d="M308.577,38.086l-0.721-0.011l-0.141,0.066C307.862,38.206,308.337,38.128,308.577,38.086z"/>
			<path fill="#FFF100" d="M255.025,38.231c-0.394,0.065-0.57,0.133-0.664,0.201C254.616,38.398,254.851,38.342,255.025,38.231z"/>
			<path fill="#FFF100" d="M308.712,39.104c0.305,0.122,0.752,0.309,0.818,0.472c0.623,0.004,1.061-0.221,1.697-0.301
				C310.511,39.337,309.681,39.294,308.712,39.104z"/>
			<path fill="#FFF100" d="M311.28,39.268l-0.053,0.007L311.28,39.268z"/>
			<path fill="#FFF100" d="M157.26,39.732l0.789-0.196l-0.387-0.022c0.143-0.63,1.979-1.105,4.156-1.03
				c-0.146-0.031-1.282-0.104-2.924-0.201l0.548-0.209c2.437,0.134,4.727,0.252,6.867,0.362c-0.785,0.123-1.592,0.218-2.549,0.162
				c2.279,0.662,5.808-0.348,6.897,0.511c-3.507,0.751-5.183,0.332-8.877,0.594c-1.889-0.643,2.378-0.391,2.495-0.755l-2.091-0.176
				c0.28,0.386-4.075,0.235-2.994,1.094c4.586,0.295,9.151,0.417,13.112,0.406l-3.814,4.39c0,0.062-0.07,0.154-0.261,0.301
				c3.91-0.036,1.881-1.694,2.833-1.854c0.864-0.052,1.603-0.435,2.351-0.124l-0.41,0.239c2.444-0.226,0.762-0.644,2.94-0.567
				c1.757-0.375-1.547-0.092-0.424-0.45c2.328,0.137,1.438-1.189,5.057-0.657c-0.177,0.201,0.402,0.711-1.716,0.799l2.069,0.441
				c-2.444,0.228-0.954,0.155-3.454,0.221c-1.153,0.621-0.878,1.009-1.943,1.531c0.944-0.155,0.756-0.645,2.165-0.617
				c1.7,0.153-0.267,0.304-0.436,0.506c2.252-0.717,2.511,0.626,4.524-0.051c-0.395-0.715-0.004-0.691-1.449-1.146
				c1.43-0.234,3.251,0.243,3.116,0.871l0.293-0.566c0.334,0.138,1.472,0.147,1.545,0.292l0.482-0.279
				c-1.051-0.433-1.892-0.642-3.706-0.429c0.736-0.381-1.002-0.961,1.35-1.087c1.016,0.004,0.124,0.323,0.19,0.486
				c5.271-0.434,5.297,0.947,9.457,0.61c-1.038,0.257-3.574-0.104-5.564,0.31c1.2,0.494,2.59-0.165,3.754-0.099
				c-1.036,0.259-1.209,0.46,0.011,0.692l0.503-0.343c0.732,0.005,2.046-0.038,2.144,0.129c0.034-0.129-0.289-0.22-0.954-0.327
				c1.84-0.474,5.294-0.694,8.551-0.45c-0.231,0.729-4.646,0.419-2.281,0.978c1.337-0.13,2.426-0.916,4.734-0.515
				c-0.979,0.418,1.052,0.434,1.025,0.696l3.206-0.872c1.551,0.09,3.341,0.142,4.768-0.093c-0.477,0.08-1.104,0.097-1.877,0.049
				c2.188-0.878,4.024,0.29,6.795-0.077l-1.276,0.297c2.092,0.174,3.755-0.098,5.42-0.372l-0.047,0.527
				c0.221-0.727,3.825-0.888,4.629-1.106c-5.121,0.494-4.4-0.575-9.363-0.021c1.865-0.739,3.206-0.873,5.226-1.549
				c0.77,0.046,1.074,0.168,1.134,0.331c0.653-0.279,0.849-0.744,2.044-0.938L226,40.664c3.401,0.306,3.075-1.199,6.33-0.955
				c0.642,0.673-2.809,0.895-4.802,1.308c1.537,0.618-3.247,0.313-1.445,1.19l0.977-0.421c1.017,0.007,0.904,0.37,0.273,0.388
				c1.341-0.136,1.018,0.006,1.517-0.336c5.159-0.069-0.548,0.869,4.498,1.166c-0.57,0.179-1.968,0.149-1.693,0.539l-2.714-0.161
				l-0.053,0.527c3.432,0.043,5.447-0.634,7.013-1.5c-3.094,0.511-0.338-0.549-1.956-0.802c0.604-0.261,1.172-0.117,1.513,0.031
				c0.229-0.153,1.787-0.251,1.581-0.539c0.739,1.264,7.452,1.286,5.921,2.575c1.912,0.377,7.831-0.336,11.979-0.411l-1.126,0.359
				c4.34,1.104,3.829-0.89,6.359-1.218c-2.227,0.452,1.975,0.539,2.876,0.912c1.993-0.416,3.613-1.115,6.419-1.055
				c0.582,0.511,0.658,1.363,2.447,1.415l1.213-0.458c1.787,0.052,4.168-0.339,5.311-0.007l-0.244,0.041
				c2.008,0.275,2.082-0.517,0.525-0.61l1.906-0.312l0.064,0.165c2.521-0.329,4.865-1.146,8.859-1.283
				c-1.064,0.52,3.029,0.974-0.576,1.133c1.037-0.257-0.572-0.511-0.783-0.735c-1.305-0.118-2.48,0.447-3.057,0.507
				c0.43,0.29,0.049,0.997-0.643,1.397c2.58-0.858,9.842-0.059,10.441-1.456c3.191,0.08,7.359-0.257,11.004,0.01
				c-0.15-0.063-0.445-0.186-0.359-0.285l3.143,0.606l-0.723,0.119l2.07,0.438c0.213,0.226-0.592,0.443-1.445,0.499
				c-0.488,0.077-0.932-0.107-0.455-0.188c-2.23,0.455,1.852,0.22,0.402,0.715c-0.547-0.084-1.254,0.032-1.645,0.011
				c2.539,0.359,3.721-0.523,5.285,0.256c1.213-0.457,3.68-0.95,5.984-0.55c-0.893,0.319,2.502-0.065,1.348,0.557
				c0.891-0.318,2.955,0.121,3.305-0.282c-0.322,0.139-1.332,0.133-2.027-0.014c0.953-0.155,1.07-0.522,2.23-0.452
				c0.15,0.063,0.063,0.161,0.063,0.161c1.514-0.334,0.516-1.296,3.166-1.298c6.971-0.279-0.988,1.374,0,1.644
				c0.258-0.302,3.33-0.545,4.711-0.253l-0.33,0.142c0.711-0.119,1.758-0.377,2.508-0.066c0.434-0.505,1.262-0.987,1.758-1.329
				l3.131-0.08l-0.65,0.278c0.713-0.116,1.34-0.133,1.971-0.149c0.271,0.388-0.65,0.277-1.604,0.436
				c0.51,0.35,1.137,0.333,1.875-0.048l-0.391-0.022c0.803-0.221,3.746-0.789,1.418-0.926c1.75-0.375,2.299,0.402,3.494,0.206
				c0.123,0.325-0.979,0.419-0.375,0.666c1.162,0.069,1.936,0.115,2.889-0.04c-0.928-0.109,0.264-0.305-1.201-0.496
				c0.563-0.181,2.049-0.251,1.99-0.413c-0.477,0.077-0.807,0.218-1.639,0.011c1.574-0.174,3.215-0.185,4.83,0.07
				c-0.061,0.076-0.221,0.15-0.404,0.221c2.096-0.564,5.246-0.418,6.65-1.074l-0.619-0.132c-0.508,0.182-1.535,0.202-1.945,0.034
				c1.576-0.173-1.115-0.597,0.549-0.87c2.289-0.289,4.326,0.415,5.574-0.308c-2.178-0.074-5.113-0.46-5.998-0.141l1.404,0.031
				l-3.207,0.871c-0.123-0.326-2.832,0.205-2.777-0.322c1.104-0.094,2.113-0.088,2.977-0.143c-0.207-0.226-2.955-0.122-4.119-0.189
				l1.465,0.19c-2.615,0.43-5.955,0.288-8.488,0.615c1.992-0.413-2.535-0.36-0.936-0.796c0.65-0.28,1.701,0.151,1.4,0.029
				c0.199-0.467-1.551-0.092-2.064-0.44c-0.268,0.304-2.857,0.469-1.33,0.822c-0.838-0.207-2.676,0.269-3.816-0.064
				c0.338,0.552-2.133,0.353-2.555,0.595c-0.498-0.03-0.93-0.137-1.27-0.265c1.059-0.172,2.354-0.403,3.703-0.657l-0.004,0.004
				c0.541,0.083,1.551,0.09,1.252-0.033l0.021-0.207c2.688-0.505,5.377-1.026,6.754-1.253l-0.658,0.28
				c2.021-0.678,4.059,0.026,6.139-0.487c-0.086,0.101-0.322,0.14,0.064,0.161c2.568,0.099,3.59-0.849,5.654-0.409l-0.26,0.302
				c0.176-0.036,1.393-0.285,1.15-0.62c-1.729,0.11-2.055,0.25-3.602,0.159c0.635-0.274,2.012-0.505,3.025-0.506l0.113-0.53
				c1.303-0.561,2.627,0.261,3.926-0.297l-1.523-0.356c0.045-0.022,0.166-0.036,0.26-0.054c-0.688,0.054-1.283,0.123-1.445,0.25
				c-2.291,0.288-3.469-0.471-3.84-0.756c-1.072-0.172,0.385-0.668,0.258-0.995c-1.727,0.111-1.625,0.7-3.354,0.811
				c-0.545-0.084-0.213-0.223,0.027-0.264l-1.277,0.297c-0.063-0.162-3.02-0.283-1.268-0.658c0.26,0.015,0.742,0,1.117,0.022
				c-2.41-0.381-6.58-0.802-6.449-1.396c-1.316-0.131-0.949,0.156-3.045-0.021c-0.973,0.421,0.08,0.854-2.211,1.143l1.807,0.21
				c0.371-0.081,0.678-0.186,1.084-0.252l-1.877,0.049c1.186-0.195,0.975-0.42,1.324-0.825c2.893-0.041,3.684,0.694,5.148,0.888
				c-0.896,0.319-2.445,0.228-1.867,0.739c-1.445-0.456-1.602,0.437-3.281,0.019l0.324-0.139c-1.363,0.396-1.551-0.091-2.678,0.268
				c0.086-0.103-0.063-0.164-0.207-0.226c-2.449,0.228,0.74,0.312-1.715,0.803c-2.178-0.077-0.705-0.839-1.307-1.086
				c3.652-0.688-0.074-0.854,3.879-1.417c-0.016-0.69-1.566-0.781-3.68-0.693c1.379,0.294-0.875,1.011,0.953,1.486
				c-3.156,0.348-2.895,1.688-6.424,1.058l0.086-0.103l-1.451,0.499l-1.998-0.277c1.238-0.724,2.764-0.369,3.74-0.788
				c-2.434-0.726-3.268,0.711-6.074,0.651c-2.336-0.825,2.855-0.47,2.846-1.159c-0.564,0.181-2.096-0.176-1.916-0.378
				c2.629,0.261,1.6-0.434,4.527-0.053c-1.426,0.234,0.219,0.226-0.049,0.53c0.418-0.242,3.158-0.348,5.096-0.233
				c0.443-0.504-1.68-0.417-2.902-0.647c-2.316,0.554-4.719-0.437-6.498,0.201c-2.502,0.065-0.188-0.487-0.338-0.55
				c-2.246-0.237-0.977,0.421-1.689,0.537c-3.393,0.384-3.77-0.594-6.188-0.629c-2.012,0.679-6.908,0.444-10.338,0.401
				c0.416-0.239-0.039-0.426-0.246-0.651c-2.041,0.941-1.307,0.56-3.859,1.152l2.158,0.339c-1.732,0.111-3.123,0.773-4.711,0.254
				c2.105,0.867-2.791,0.632-4.068,0.928c-1.768-0.314-3.541,0.323-4.506-0.211l0.24-0.04l-2.568-0.098l0.313-0.828
				c-1.766-0.317-3.936,0.298-3.326,0.545c-1.855-0.213-0.762-0.309-1.029-0.696c1.043-0.259,3.293-0.973,3.934-0.3
				c-0.15-0.063-0.541-0.085-0.631,0.017c4.824,0.378,1.574-1.008,3.98-1.22c-1.254-0.059-2.189-0.459-3.529-0.239
				c-0.621,0.018-3.154,0.346-4.43,0.642c1.752-0.375,2.654-0.004,4.029,0.289c-1.166-0.068-1.357,0.399-2.355,0.128l0.326-0.141
				l-1.273,0.296c-0.189-0.488-3.494-0.204-1.561-0.78c-1.73,0.11-0.596,0.442-2.17,0.615l3.109,0.183l-0.053,0.526
				c-1.135,0.358-1.408-0.03-2.66,0.004l0.107,0.589l-2.219-0.501c0.273,0.386-1.432,0.234-1.908,0.313
				c-1.223-0.231-0.432-1.14-2.514-0.625l0.15,0.062c-1.191,0.197-1.898,0.313-3.602,0.159c0.09-0.1,0.561-0.178,0.795-0.217
				c-2.387-0.302-6.216,0.589-7.305-0.271c0.195-0.465,1.188-0.195,1.239-0.722c3.679,0.691,2.58-0.856,6.912-0.445
				c0.199,1.181,3.652-0.687,4.479,0.479c-1.701-0.155-3.959,0.561-3.656,0.685c1.564-0.065,3.758-0.091,4.85,0.031
				c-0.961-0.386-0.652-1.035,0.045-1.44c-2.529,0.328-7.133-0.472-10.715-0.577l0.402,0.712c-3.093,0.51,0.375-0.666-2.039-0.703
				l-1.066,0.521l-0.153-0.062l-1.772,0.637c1.252-0.031,0.676-0.544,2.054-0.249c1.224,0.231-0.053,0.527-0.401,0.932
				c-0.838-0.21-3.818-0.064-1.979-0.541l-3.269,0.708c0.024-0.262,0.737-0.381,1.07-0.519l-2.36,0.125l0.087-0.1
				c-1.899,0.312-4.556,0.315-6.009,0.815c3.234,0.506-1.541,0.597-1.264,0.985c-1.163-0.068-1.517-1.309,0.948-1.801
				c0.666,0.409,2.359-0.126,3.606-0.158c-1.609-0.254-2.11,0.085-3.368,0.119c0.888-0.318-1.676-0.416-1.648-0.681
				c0.169-0.203,0.695-0.809,2.313-0.554c2.414,0.035,0.251,0.65,0.965,0.533c0.64,0.675,3.367-0.12,4.831,0.072
				c0.154,0.063-0.326,0.14-0.563,0.179c1.258-0.032,3.908-0.035,4.104-0.501l-3.15,0.346c-0.687-0.146,0.973-0.421-0.011-0.693
				c-0.718,0.118-1.577,0.176-2.508,0.069l0.176-0.203c-1.911-0.377-4.897-0.235-7.096-0.045c-0.491,1.031-1.641,1.652-2.607,2.762
				c-3.275,0.022-6.709-0.021-10.198-0.226c0.826-0.482,3.026-0.673,5.444-0.637l-1.037,0.26c1.941,0.113,2.678-0.269,3.48-0.486
				c-0.092,0.102,0.059,0.163,0.36,0.287c1.728-0.111,2.64-0.694,1.746-1.066l-0.57,0.179l-1.198-0.496
				c-0.454,0.961-3.983,0.415-5.917,0.84c1.329-0.424,2.473-1.309,4.187-0.726l-0.184-0.49c1.484-0.071,2.689,0.424,3.514-0.058
				l-1.73,0.111l0.029-0.266c-1.228,0.034-2.789,0.448-3.921,0.153c-0.997,0.326-1.932,0.845-4.592,0.727l0.089-0.102
				c-1.803,0.902-5.023-0.559-6.387-0.16c-0.788,0.906,2.925,0.382,3.826,0.753c-1.123,0.358-2.324-0.137-1.361,0.397
				c-2.618,0.432-1.563-0.781-3.729-0.164l1.228,0.23c-0.973,0.42-2.591,0.165-3.57,0.585c-0.136,0.629,1.645-0.01,3.499,0.203
				l-0.83,0.482l3.715-0.523c1.095-0.785,0.077-0.791,2.394-1.343c1.201,0.494,1.903,1.33,1.378,1.936
				c-0.987-0.27-2.807-0.057-2.752-0.587c-1.063,0.522-4.069,0.93-3.495,1.44l-0.4,0.034c-1.263-0.568-3.166-1.016-6.594-1.134
				c-0.669-0.01-0.767,0.341-0.614,0.84c-0.723-0.15-1.402-0.289-2.091-0.31c0.527-0.229,0.869-0.53,1.879-0.559l-5.323-0.176
				l0.411-0.239l-2.098,0.346c1.183-0.135,3.014,0.009,2.564,0.531c-2.38,0.39-3.729-0.168-5.75,0.509
				c0.014-0.952-0.674-1.099,0-1.644c0.138,0.01,0.201,0.027,0.239,0.048c0.758-0.515,2.372-1.075,3.622-1.2
				c-4.422-0.313-3.281,0.021-7.163-0.207c-0.338-0.552,3.57-0.588,2.67-0.959l3.642,0.268c-0.618,0.039-0.694,0.163-0.989,0.252
				c2.51-0.396,3.42,0.105,5.309-0.528c1.195,0.255-1.86,0.421-0.55,0.514c-1.111,0.103-2.2,0.722-2.733,1.149
				c2.868,0.221,1.629-0.699,4.069-0.928l1.824,0.48c1.103-0.096-0.36-0.289-0.424-0.45c1.341-0.134,1.849,0.214,2.864,0.222
				c-0.296-0.125-0.983-0.27-0.811-0.474c1.682,0.418,3.341,0.145,4.903,0.925c-0.901-0.371,1.028-0.947,1.745-1.065l-3.21-0.771
				c-4.077,0.24-6.618-0.123-11.022,0.253l0.26-0.302c-6.935-0.938-5.756,1.465-11.688,1.487c-0.165-0.752-2.744,0.104-2.52-0.625
				c1.789,0.052,1.427-0.234,0.916-0.582c-1.04,0.259-1.716,0.801-3.72,0.525c0.737-0.382-1.025-0.699,0.94-0.847
				c-2.717-0.161-4.207-0.09-5.596,0.569c-4.43,0.642-1.327-0.816-5.729-0.44l0.646-0.281l-2.74,0.105l0.901,0.371l-3.24,0.446
				c-1.994,0.413,0.811,0.472,0.552,0.774l0.672-0.544c1.31,0.13,3.157-0.345,3.432,0.041c-2.14,0.083-1.627,0.512-2.478,0.729
				l2.039-0.223l0.665,0.409c2.025,0.014,3.585,0.104,4.794-0.355c-0.839-0.207-1.367,0.398-2.116,0.089
				c0.997-0.684,3.504-0.748,5.945-0.977c0.063,0.162,0.839,0.208,0.511,0.348c-0.051,0.063-0.477,0.057-0.714,0.028
				c0.183,0.305-1.178,0.5,1.115,0.685c-0.822,0.482-2.54,1.283-2.478,1.447c-1.338,0.133-3.217,0.181-4.291,0.011l0.086-0.101
				c-1.16-0.068-3.623,0.426-3.818-0.063c-0.711,0.117-2.677,0.268-0.676,0.543l-3.302,0.283c0.546-0.871-2.559-1.049,0.711-1.762
				c-0.113,0.02-1.314,0.121-3.24,0.28l0.09-0.084l0.255-0.155c0.39,0.024,0.627-0.015,0.69,0.149
				c1.153-0.621-0.544-0.778-2.342-0.828l-0.424,0.491c-1.554-0.277-2.482-0.716-4.55-0.503l-4.835,1.837l-1.423,0.115
				c-0.631-0.286-2.76-0.071-1.922-0.644c-0.216-0.227,0.5-0.342,1.43-0.234c0.143,0.061-0.09,0.1,0.061,0.161
				c0.263-0.303,0.373-0.666-0.759-0.997c1.156,0.066,1.307,0.128,2.11-0.09l-1.164-0.068c1.727-0.109,4.37-0.806,4.333-1.23
				c-0.529,0.605-1.637,0.009-2.568-0.099c0.713-0.116,2.228-0.452,1.066-0.521c-0.413,0.242-3.57,0.587-1.329,0.823
				c-0.95,0.157-2.226,0.454-3.302,0.283c1.267-0.297,0.434-0.502,0.787-0.907c-1.126,0.357-1.089,0.783-1.269,0.985
				c-3.221-0.508-4.528-1.592-8.154-1.169c-0.477,0.078,2.2-0.188,1.854,0.214c-2.65,0.695-3.448-0.733-5.744-0.439l0.646,0.673
				c-0.715,0.116-2.448,0.228-3.304,0.283c-0.218-0.226-2.669-0.688-0.853-0.898c-3.942-0.392-3.487,1.438-8.004,1.227
				c2.091,0.176,2.332,0.137,3.972,0.128c-1.753,0.374-0.267,0.301-0.462,0.767c-1.051-0.433-4.445-0.048-2.132-0.602
				c-1.4-0.028-4.205-0.088-4.854,0.19l1.228,0.233c-2.027-0.014-4.021,0.399-4.847,0.882c2.512-0.063,2.429-0.918,5.624-0.836
				c3.463,0.469-0.826,0.481,1.449,1.145l2.466-0.491l-1.164-0.069c0.375-0.666,3.818,0.067,3.506-0.748
				c2.508,0.627,3.251,0.245,6.007,0.831c0.651-0.279-0.36-0.287-1.137-0.332c1.396,0.029,1.473-0.762,3.304-0.283
				c0.927,0.106,0.289-0.566-1.354-0.558c1.402,0.03,2.743-0.103,4.293-0.011l-1.584-0.52l1.637-0.01l-1.378-0.295
				c3.127-0.08,6.712,0.026,8.361,0.706c-2.703,0.53-7.208,0.318-8.774,1.182c0.601,0.248,2.167-0.616,2.953,0.12l0.824-0.481
				c0.954-0.157,3.155-0.347,3.347,0.141c-2.607,0.354-3.291,0.782-4.616,1.198c-0.011,0.103-0.25,0.156-0.627,0.179l-0.041,0.013
				l0.024-0.013c-0.775,0.047-2.041-0.004-2.765,0.116c-0.92-0.107-0.286-0.388-0.188-0.487c-3.142-0.611-5.32,0.959-8.639,0.553
				c-0.034-0.427-2.604-0.523-1.802-0.744c-1.938-0.112-3.005,0.407-4.278,0.703c-0.279-0.386-2.956-0.119-1.98-0.539l-1.776,0.64
				c-1.224-0.232-3.758,0.095-4.183-0.353c-1.34,0.133-0.375,0.667-2.23,0.451c0.086-0.099-0.06-0.161,0.327-0.138
				c-0.837-0.209-2.872-0.224-3.754,0.097c1.306,0.13,0.3,0.124,1.853,0.215c-0.034,0.264-1.778,0.637-3.542,0.322
				c2.402-0.654-1.894-0.642-0.768-1c-3.814-0.066-6.005,0.814-9.185,1.424c-3.754,0.097-8.414-0.177-11.355,0.394l0.389,0.023
				l-1.753,0.372c-1.014-0.005-0.015-0.688-1.588-0.517c0.529-0.604,2.74-0.104,4.343-0.541c-2.755-0.586,2.553-0.593,0.723-1.071
				c-1.049,1.212-5.874,0.186-8.273,0.841c-2.331-0.138,1.064-0.52-0.094-0.59l-0.743,0.383c-0.924-0.109-1.228-0.232-1.204-0.497
				c-2.476-0.199-5.31,0.008-7.386,0.521c2.681-0.267-0.909,0.584,1.74,0.58c-0.802,0.218-2.529,0.328-4.164,0.34
				c1.575-0.173-2.108-0.867,1.385-0.662c-0.488-0.612-1.725,0.11-3.283,0.021c0.8-0.22,2.564-0.595,2.406-0.656
				c-2.34,0.817-7.523-0.494-8.432,0.087c-1.697,0.539-4.312,0.968-6.388,1.482c-2.067-0.439-4.357-0.149-6.685-0.287l0.413-0.239
				c-1.314-0.131-3.364,0.121-5.305,0.007l-0.432-0.451c-1.336,0.134-3.837,0.199-5.872,0.187c-0.022,0.265,1.856,0.215,0.969,0.532
				c1.014,0.009,1.875-0.048,1.513-0.333c1.014,0.005,1.055,0.432,1.889,0.641l-3.927,0.298c-0.315-0.03-0.428-0.067-0.447-0.106
				l-0.289,0.487c-1.017-0.005-1.314-0.128-1.141-0.328c-2.208,0.187-2.974,0.831-5.301,0.694c0.984-0.419,1.633-0.699,3.274-0.709
				l-2.656,0.003c1.215-0.461,5.81-0.348,5.021-1.085c-2.917,0.306-7.174,0.746-9.728,1.34c-1.355-0.559-3.367,0.119-5.605-0.12
				c-0.306-0.122-0.991-0.269-0.576-0.509l0.625-0.018c-2.962-0.119-6.349,0.264-8.965,0.695l-1.348-0.559
				c-4.509-0.211,0.849,0.898-3.77,1.051c-1.115-0.594-5.672-0.278-5.86-0.768c-0.863,0.056-1.254,0.033-1.363,0.399
				c0.777,0.044,2.5-0.066,1.524,0.354c-1.577,0.172-2.328-0.139-3.578-0.106c0.086-0.101,0.98-0.42,0.5-0.341
				c-3.067,0.244-8.765,0.229-11.67,1.225c1.102-0.095,1.218-0.46,2.687-0.269c-0.026,0.265-0.804,0.221-1.126,0.359
				c0.184,0.489,1.513-0.337,3.041,0.021l-2.559,0.593l1.44,0.453L0,40.488c4.806,0.336,7.009-1.498,10.931-0.845
				c-0.618,0.153-0.013,0.283,0.141,0.405c1.247-0.241,2.737-0.241,3.501-0.563l1.986,0.013c-0.021,0.263-0.786,0.91-2.813,0.897
				c7.095,0.044,12.53-1.282,19.665-0.809c0.3,0.124-0.95,0.157-0.415,0.239c0.956-0.155,2.534-0.328,2.468-0.49
				c-0.086,0.101-0.267,0.303-0.888,0.32c3.692-0.261,5.645,0.543,8.025,0.151c0.127,0.326-1.819,0.213-1.517,0.335
				c3.642,0.267,5.532-0.734,9.202-0.732c-1.213,0.46,0.809,0.474,1.802,0.743c3.007-0.407,9.412-0.506,13.97-0.823
				c-1.201,1.149,5.07,0.033,5.444,1.009c1.014,0.006,2.59-0.165,2.703-0.531c-0.563,0.181-1.937-0.115-1.757-0.315
				c1.483-0.07,3.747-0.097,3.949-0.563l1.832,0.479c0.113-0.365,0.698-0.808,1.712-0.801c2.253,0.929-0.248-0.65,2.974-0.145
				c-0.734,0.38-1.387,0.662-1.652,0.964c1.556,0.092,1.344-0.132,2.444-0.227c0.364,0.285-1.088,0.785-2.275,0.979l2.001,0.277
				c1.93-0.576,5.282-1.388,8.387-1.203c-0.503,0.34-1.513,0.333-0.698,0.806c1.336-0.134,3.116-0.773,4.88-0.455
				c-0.242,0.038-0.092,0.101-0.331,0.14c3.098-0.509,2.332,0.137,5.136,0.195l-0.135,0.174l1.712-0.348
				c3.593-0.848,4.006,0.555,6.161,0.892l-0.477,0.079c1.352,0.559,5.689,0.018,6.923,0.248c-1.528-0.355-0.511-0.349-1.629-0.943
				c-1.344,0.133-0.935,0.845-3.18,0.607c0.289-0.566,3.12-0.77,3.704-1.214c1.256-0.033,2.108,0.865,2.232,1.194
				c3.131-0.084,4.892,0.231,8.73,0.032c1.37-0.397,2.419-1.609,5.626-0.836l-0.177,0.202c0.109-0.366,1.554,0.091,2.204-0.189
				c-1.111-0.597,1.366-0.397,0.015-0.954c1.875-0.048,2.189,0.768,2.376,1.255c1.325-0.823,3.706,0.429,6.566-0.04
				c-0.511,0.342-3.634,0.422-2.347,0.817l3.679-0.951l-1.637,0.01c2.79-0.632,3.574,0.103,5.192,0.359
				c0.315,0.243-0.742,0.334-1.538,0.323c0.86,0.035,2.228-0.071,3.347-0.262c0.847-0.261,3.777-0.584,4.956-1.027l0.473,0.05
				l-0.214,0.106l0.608-0.067l1.479,0.13l-0.296,0.114l0.571-0.09L157.26,39.732z M14.946,39.244l-0.312,0.219
				C14.957,39.395,14.867,39.335,14.946,39.244z M197.992,37.214c0.93,0.106,1.673-0.274,2.184,0.074
				c0.051,0.144-4.601,1.763-6.042,2.204c-1.782,0.091-3.676,0.071-4.774-0.083l0.552-0.089c8.4,0.025,4.862-0.916-0.172-2.16
				c2.79,0.076,5.718,0.248,8.62,0.341L197.992,37.214z M200.22,39.292l1.727-0.094c-0.255,0.248,0.12,0.523-1.523,0.385
				C200.544,39.443,200.438,39.355,200.22,39.292z M201.425,38.901c0.081,0.033,0.238,0.043,0.424,0.051L201.425,38.901z
				 M168.833,38.563l1.185,0.058l-0.169,0.015C169.292,38.633,168.99,38.603,168.833,38.563z M172.468,38.737l1.111,0.053
				l-0.39,0.454C172.724,39.123,172.592,38.943,172.468,38.737z M181.295,40.475c1.854,0.216,1.678-1.226,3.392-0.385
				c0.272-0.386-0.175-0.542-0.843-0.62c0.226-0.083,0.359-0.168,0.383-0.26c0.676,0.021,1.314,0.039,1.909,0.053
				c0.535,0.052,1.012,0.115,0.869,0.274c-0.139,0.63-2.406,0.654-3.082,1.199C183.36,40.916,180.706,40.919,181.295,40.475z
				 M318.667,38.679c-0.375-0.051-0.824-0.086-1.305-0.11c0.502,0.34,1.027,0.752,2.008,0.949c2.1-0.778,3.965,0.125,6.297,0.263
				l1.305-0.311c-0.254-0.176-0.436-0.317-0.486-0.372C321.731,39.88,324.548,37.541,318.667,38.679z M304.698,37.86l-0.652,0.279
				c0.375,0.395,2.09-0.031,3.811-0.063c0.51-0.224,1.617-0.442,2.297-0.162l-0.264,0.304c0.301,0.268,2.006,0.284,3.924,0.289
				l-0.781,0.318c-0.494,0.221-1.072,0.38-1.752,0.443c0.387-0.045,0.848-0.028,1.471,0.123l-3.387,1.076
				c1.703,0.153,1.961-0.839,4.045-0.664c-0.141,0.629-0.012,0.954-2.238,1.407c-1.941-0.116,0.109-0.367-0.879-0.635
				c-1.475,0.762-1.893-0.642-3.453,0.221c-1.877,0.047-1.293-0.394-1.889-0.641c1.873-0.049-0.879-0.637,1.473-0.765
				c-1.914-0.376-1.391,0.663-3,0.41l-0.25-0.653c-1.471-0.191-4.635-0.537-6.625-0.124c1.678,0.416-0.977,0.42-0.701,0.81
				c0.289-0.57,2.594-0.166,2.564,0.096c-1.334,0.134-4.705,0.255-5.393,0.108l2.541,0.36c-0.889,0.321-4.068,0.929-4.154,1.028
				c-0.994-0.27-2.479-0.195-2.992-0.546l1.838-0.476l0.662,0.411l1.061-0.521c-1.195-0.19-3.715-0.543-4.26-1.002
				c2.809,0.045,7.096-0.289,12.303-1.444c0,0-0.086,0.104-0.326,0.142C302.349,37.987,302.583,37.948,304.698,37.86z
				 M232.972,37.094l0.177,0.487c4.126,0.189,7.059-1.071,11.323-0.821c-0.59,0.444-2.204,0.191-1.986,0.414
				c2.564,0.099,2.215-1.142,4.73-0.518c-3.604,0.162,2.245,0.238-1.002,0.685c4.52-0.742,9.34,0.283,12.315,0.141
				c-0.749-0.312,1.219-0.459,1.305-0.561c0.777,0.045,0.515,0.35-0.112,0.364c1.533,0.273,1.802,0.679,1.547,1.069l-3.135,0.055
				c1.017,0.137,1.569,0.469,2.395,0.534v0.003l0.004-0.003c0.362,0.03,0.77,0.013,1.305-0.102c0.533-0.169,0.43-0.239,0.434-0.47
				c1.003-0.318,2.257-0.708,3.859-1.186l-0.09,0.099l3.371-0.118l-0.412,0.237l1.982-0.412c-0.047,0.527,0.607,0.247,0.494,0.611
				c1.24,0.923,4.404-0.377,7.096,0.047l-0.412,0.24c1.457-0.5,5.072,0.034,7.396,0.168l-0.084,0.102
				c-1.418,0.209-1.695,0.514-1.043,0.759c-0.488,0.108-1.26,0.179-1.711,0.3c-0.781-0.045-2.979,0.144-3.166-0.345
				c1.637-0.01,1.482-0.071,0.734-0.379c-1.602,0.435-4.617,0.151-4.457,0.903c-2.266,0.026-0.688-0.146-2.303-0.399
				c-0.211-0.227,0.355-0.405,0.916-0.582l-6.582,0.302c-0.289,0.566,4.24,0.516,1.984,1.229c-0.561,0.18-0.486,1.032-2.727,0.795
				c-0.029-0.076,0.162-0.131,0.385-0.171c-1.02,0.106-1.188-0.098-2.297-0.205c-0.337-0.551,1.363-0.397,2.1-0.778
				c-0.713,0.116-1.514,0.334-2.293,0.289l0.18-0.204l-2.357,0.128c-0.973,0.421,1.789,0.053,1.918,0.377l-1.513,0.336
				c-1.729,0.113-6.345,0.265-7.912-0.516c-2.003-0.277-1.126,0.357-1.628,0.698c-1.212,0.459-2.331-0.135-3.518,0.06
				c0.038,0.426-1.366,0.396-1.417,0.924l-1.939-0.113c-1.089,0.784,2.328,0.137,2.842,0.483c1.033,0.698-1.43,0.234-0.762,0.646
				c1.486-0.073,1.6-0.438,2.32-0.555c0.855-0.054,1.311,0.13,1.284,0.395c-2.388-0.301-1.299,0.561-3.244,0.446l-0.063-0.163
				c-0.049,0.529-2.823,0.206-3.863,0.463c-2.125-0.603,1.72-0.802,1.651-0.965l-2.592,0.166c1.128-0.356-0.014-0.688,1.504-1.023
				c-1.581,0.171-1.769-0.318-3.281,0.019c1.715-0.801-2.129-0.602-2.316-1.093c1.82-0.21,5.173,0.623,4.696,0.703
				c-0.063-0.165,2.113-0.089,2.953,0.118l1.236-0.724c-1.4-0.028-3.304,0.286-2.774-0.321l-1.907,0.315
				c1.964-0.964,1.866-0.925,3.646-1.346c-3.664-0.778-6.524,0.85-9.536,0.148l0.472-0.077c-5.975,0.196-7.387-0.791-8.667-1.908
				C231.325,37.226,232.192,37.157,232.972,37.094z M221.965,38.727l1.291,0.396l-1.967,0.15c0.814,0.471,2.181,0.073,3.194,0.082
				c1.138,0.331-2.616,0.429-3.859,1.151c-1.122,0.358-3.576-0.104-3.165-0.346c-0.067,0.792-3.634,0.425-4.996,0.819
				c-3.278,0.021-2.159-1.027-5.08-0.722l1.052,0.433c-2.591,0.166-3.691,0.261-6.556,0.04c-0.342-0.552,1.311,0.129,1.964-0.149
				l-1.352-0.558c0.621-0.018,1.84-0.476,1.791,0.052c0.022-0.264,0.998-0.685-0.815-0.472l1.363-0.397l-0.301-0.155l1.228-0.071
				c0.515,0.177,1.446,0.158,2.242,0.573c0.06,0.162-0.796,0.218-1.284,0.295c1.233,0.231,2.335,0.139,3.045,0.02
				c-1.938-0.113-0.901-0.371-1.325-0.821c1.189-0.194,3.127-0.081,3.844-0.199c1.645,0.19,2.996,0.699,1.899,1.101
				c1.052-0.215,2.155,0.001,3.271-0.478c-2.076,0.517-0.049-1.118-2.692-0.422c-0.786-0.736,2.23-0.454,3.604-0.161
				c-0.713,0.118-0.112,0.366-0.285,0.566c2.052-0.249,1.085-0.784-0.381-0.975l2.386-0.393l-0.236-0.015l2.417-0.168
				C222.57,38.485,222.633,38.87,221.965,38.727z M178.212,33.457l-0.084-0.003l0.077,0.011L178.212,33.457z"/>
			<path fill="#FFF100" d="M355.618,37.457c0.566-0.181,1.967-0.15,1.693-0.537C357.345,37.344,354.81,36.985,355.618,37.457z"/>
			<path fill="#FFF100" d="M357.292,37.875c0.098-0.103,0.031-0.267,0.658-0.281l-1.729,0.108L357.292,37.875z"/>
			<path fill="#FFF100" d="M359.046,40.786c0.891-0.318,1.457-0.497,2.857-0.469c0.525,1.04-2.293,0.291-2.928,1.26
				c2.566,0.098,3.354-0.809,5.465-0.897C363.394,40.246,359.122,39.996,359.046,40.786z"/>
			<polygon fill="#FFF100" points="357.907,42.099 359.335,41.865 359.192,41.803 357.765,42.038 			"/>
			<path fill="#FFF100" d="M327.011,33.069c-0.129-0.325-1.018-0.005-1.494,0.073C325.903,33.164,326.444,33.25,327.011,33.069z"/>
			<path fill="#FFF100" d="M46.707,32.731l-10.88,0.313C38.958,32.962,41.849,32.921,46.707,32.731z"/>
			<path fill="#FFF100" d="M290.901,35.192c2.92-0.306,4.221-0.867,7.195-1.009c-3.914-0.654-5.17,1.022-8.457,0.353L290.901,35.192
				z"/>
			<path fill="#FFF100" d="M291.931,32.6c0.484,0.612-2.254,0.717-1.828,1.166c1.967-0.149,0.916-0.582,2.703-0.53L291.931,32.6z"/>
			<polygon fill="#FFF100" points="305.171,42.714 304.286,43.033 304.999,42.917 			"/>
			<polygon fill="#FFF100" points="278.614,33.143 278.937,33.005 277.472,32.812 			"/>
			<polygon fill="#FFF100" points="279.259,32.865 278.937,33.005 278.937,33.005 			"/>
			<polygon fill="#FFF100" points="304.032,44.027 305.351,44.157 306.001,43.878 			"/>
			<path fill="#FFF100" d="M292.411,40.745l1.178-0.196C293.354,40.586,291.743,40.335,292.411,40.745z"/>
			<polygon fill="#FFF100" points="269.667,32.883 268.233,33.12 268.38,33.179 269.81,32.944 			"/>
			<path fill="#FFF100" d="M283.19,42.431c0.813,0.47-2.352,0.127-0.676,0.543C284.003,42.901,283.399,42.656,283.19,42.431z"/>
			<path fill="#FFF100" d="M265.896,39.241l-0.592,0.07L265.896,39.241z"/>
			<path fill="#FFF100" d="M265.896,39.241c0.625,0,1.248,0.181,1.676,0.045C266.796,39.073,266.511,39.153,265.896,39.241z"/>
			<path fill="#FFF100" d="M258.746,39.351l0.567,0.034c-0.578,0.231-0.307,0.198,0.21,0.011c0.601-0.016,0.567-0.165,0.639-0.267
				l0.367-0.183l-0.491,0.17C259.11,39.113,258.542,39.135,258.746,39.351z"/>
			<path fill="#FFF100" d="M232.18,31.425c2.092,0.175,2.632,0.261,2.52,0.625c1.982,0.117,1.675-0.513,2.872-0.659
				C235.327,31.462,234.869,31.294,232.18,31.425z"/>
			<path fill="#FFF100" d="M237.572,31.391l0.782-0.028C238.028,31.352,237.786,31.368,237.572,31.391z"/>
			<polygon fill="#FFF100" points="267.103,43.342 265.804,43.901 266.28,43.824 			"/>
			<path fill="#FFF100" d="M229.08,31.241c0.387,0.022,1.01,0.009,1.313,0.134C230.504,31.006,228.693,31.219,229.08,31.241z"/>
			<path fill="#FFF100" d="M237.14,38.4c0.214,0.225,1.551,0.09,2.095,0.176C238.454,38.529,237.818,37.856,237.14,38.4z"/>
			<path fill="#FFF100" d="M223.083,32.748c0.387,0.023,0.984,0.269,0.725,0.572C224.372,33.139,225.133,32.496,223.083,32.748z"/>
			<polygon fill="#FFF100" points="233.322,38.335 233.619,38.458 235.048,38.223 			"/>
			<path fill="#FFF100" d="M238.424,43.726c1.606-0.436-2.554-1.052,0.218-1.42c-3.574-0.456,0.273,0.617-2.362,0.546
				C237.823,43,238.58,43.551,238.424,43.726z"/>
			<path fill="#FFF100" d="M236.28,42.852l-0.731-0.037C235.841,42.835,236.076,42.847,236.28,42.852z"/>
			<path fill="#FFF100" d="M213.638,40.094c0.232-0.045,0.395-0.095,0.54-0.146L213.638,40.094z"/>
			<path fill="#FFF100" d="M227.859,43.212l2.41-0.654c-1.61,0.435-5.661,0.409-5.409,1.06c1.312,0.134,2.891-0.041,3.54-0.321
				L227.859,43.212z"/>
			<path fill="#FFF100" d="M200.183,31.403l1.041-0.26l-1.301-0.075C200.295,31.166,199.624,31.643,200.183,31.403z"/>
			<path fill="#FFF100" d="M199.672,31.054l0.251,0.014L199.672,31.054z"/>
			<path fill="#FFF100" d="M218.2,39.78c0.777,0.045,1.4,0.027,2.111-0.088C220.016,39.569,218.076,39.454,218.2,39.78z"/>
			<polygon fill="#FFF100" points="192.847,32.35 194.566,32.237 192.689,32.286 			"/>
			<polygon fill="#FFF100" points="184.824,31.241 184.525,31.12 183.101,31.352 183.401,31.475 			"/>
			<path fill="#FFF100" d="M195.317,44.058c1.166,0.07,2.076-0.516,1.772-0.639l-2.26,0.024c0.574,0.513,0.627-0.015,1.937,0.115
				L195.317,44.058z"/>
			<path fill="#FFF100" d="M125.268,32.199c0.505-0.342,2.979-0.144,3.107,0.182c-0.331,0.14-1.673,0.275-0.83,0.482l1.956-0.84
				c2.602,0.523-1.979,1.105-3.262,1.4c2.65,0.108,3.435-0.443,6.254-0.44c-0.832-0.075-1.355-0.285-1.794-0.465
				c-0.098-0.592,2.53-0.33,4.408-0.376c-1.196-0.257-0.503-0.473,0.368-0.706c0.158-0.017,0.261-0.051,0.334-0.092l0.297-0.082
				l-0.226,0.001c0.015-0.066-0.034-0.146-0.195-0.257c-1.577,0.173-2.782-0.32-3.796-0.328c1.002,0.961-3.456,0.223-4.73,0.518
				l-1.474,0.095l-0.55,0.002c-0.113-0.105,0.045-0.237,0.886-0.428c-0.702,0.189-3.041,0.123-2.823,0.432l-5.337,0.014
				l-0.456-0.157c-0.184,0.061-0.214,0.11-0.191,0.159l-23.247,0.063c1.147,0.074,2.138,0.295,3.322,0.4
				c-1.775,0.639,1.938,0.115,1.417,0.718c-0.798,0.22-1.965,0.15-2.66,0.005c-0.261,0.304,0.732,0.574,0.616,0.938
				c2.932,0.384,3.383-1.076,6.247-0.853c-0.112,0.364-0.999,0.684,0.879,0.634l-0.479,0.079c3.005-0.409,2.341,0.826,4.233-0.176
				l-0.049,0.527c1.363-0.396,4.014-0.4,5.508-0.474l-0.09,0.102c4.194-0.603,2.354-0.127,7.06-0.38l-2.164,0.614
				c1.622,0.255,1.99-0.413,3.153-0.345c-0.083,0.102,0.188,0.487-0.912,0.584l5.71-0.938
				C127.12,32.414,125.479,32.423,125.268,32.199z"/>
			<path fill="#FFF100" d="M132.493,32.983c0.302,0.027,0.646,0.04,1.051,0.021C133.153,32.987,132.815,32.983,132.493,32.983z"/>
			<path fill="#FFF100" d="M92.333,31.378l1.633-0.004C93.459,31.341,92.934,31.332,92.333,31.378z"/>
			<path fill="#FFF100" d="M140.681,31.832c-0.991-0.272,0.74-0.382,0.913-0.584l-3.546,0.01c0.017,0.204-0.336,0.431-0.265,0.617
				L140.681,31.832z"/>
			<path fill="#FFF100" d="M137.021,30.875c-0.12,0.141-0.496,0.268-0.916,0.388l1.943-0.005
				C138.034,31.104,137.816,30.966,137.021,30.875z"/>
			<polygon fill="#FFF100" points="137.396,41.715 136.769,41.733 135.819,41.89 			"/>
			<path fill="#FFF100" d="M127.575,40.821c0.751,0.31,2.174,0.075,2.648-0.002C128.584,40.826,129.294,40.71,127.575,40.821z"/>
			<polygon fill="#FFF100" points="129.602,44.123 128.021,44.296 128.168,44.357 			"/>
			<path fill="#FFF100" d="M80.263,33.454l-0.773,0.034C79.843,33.49,80.075,33.475,80.263,33.454z"/>
			<path fill="#FFF100" d="M93.824,32.952c-3.77-0.593,2.47-0.493,1.288-1.251l-2.054,0.251l0.175-0.202l-2.502,0.065
				c0.514,0.349,0.899,0.369,0.789,0.735c-3.341-0.143-1.053-0.434-3.503-0.895l-3.735,0.066l0.302-0.109
				c-0.313,0.008-0.453,0.055-0.562,0.113l-12.583,0.228c-2.288,0.29,1.267,0.658-0.422,1.195c2.654-0.002,6.596,0.388,6.822-0.342
				c-0.088,0.101-0.263,0.301,0.274,0.387l1.536-0.6l-1.464-0.19c1.543-0.598,6.525-0.465,7.426-0.094
				c-2.833,0.204-1.411,0.925-5.359,0.532c0.178,0.186,0.901,0.51,0.013,0.611C84.888,33.241,89.033,33.573,93.824,32.952z"/>
			<path fill="#FFF100" d="M47.428,33.301l0.037-0.065C47.381,33.271,47.353,33.297,47.428,33.301z"/>
			<path fill="#FFF100" d="M48.98,33.391l2.254-0.714l-3.514,0.058l-0.255,0.501c0.31-0.128,1.542-0.381,2.02-0.185L48.98,33.391z"
				/>
			<path fill="#FFF100" d="M53.852,32.246c-1.813,0.213-1.716,0.803-0.725,1.071c-1.667,0.273-0.88-0.633-2.029-0.011
				c0.04,0.426,2.093,0.176,2.564,0.098L53.852,32.246z"/>
			<polygon fill="#FFF100" points="67.247,32.556 66.736,32.801 67.994,32.865 			"/>
			<path fill="#FFF100" d="M66.736,32.801l-1.25-0.066c0.086,0.183,0.172,0.358,0.375,0.482L66.736,32.801z"/>
			<path fill="#FFF100" d="M62.212,32.565c-0.529-0.045-1.115-0.077-1.827-0.094L62.212,32.565z"/>
			<polygon fill="#FFF100" points="63.639,32.715 63.596,32.638 62.212,32.565 			"/>
			<path fill="#FFF100" d="M65.486,32.735c-0.203-0.414-0.439-0.848-2.245-0.731l0.354,0.635L65.486,32.735z"/>
			<polygon fill="#FFF100" points="118.106,43.5 116.68,43.733 116.83,43.797 118.256,43.563 			"/>
			<path fill="#FFF100" d="M109.869,43.123c-0.353,0.071-0.621,0.148-0.863,0.228C109.377,43.303,109.674,43.235,109.869,43.123z"/>
			<path fill="#FFF100" d="M103.746,45.944c-1.678-0.415,2.316-0.549-0.792-0.733c-0.276-0.387,1.183-0.886,2.646-0.692
				c-0.116,0.363-1.426,0.233-0.527,0.604c0.972-0.421,1.342-0.135,1.004-0.684c1.637-0.342,1.817-0.732,2.928-1.089
				c-1.979,0.24-6.131-0.322-8.639,0.382c-1.385,0.659-0.544,1.561-0.552,2.514C100.025,46.47,103.611,46.576,103.746,45.944z"/>
			<path fill="#FFF100" d="M106.389,46.896c0.775,0.047,1.014,0.009,1.49-0.071C107.752,46.5,107.016,46.881,106.389,46.896z"/>
			<path fill="#FFF100" d="M88.53,39.719c-0.15,0.136-1.556,0.304-1.254,0.538l2.133-0.171
				C88.907,40.064,88.733,39.898,88.53,39.719z"/>
			<path fill="#FFF100" d="M90.343,40.013l-0.935,0.073C89.641,40.098,89.93,40.08,90.343,40.013z"/>
			<path fill="#FFF100" d="M88.427,39.635l0.103,0.084C88.56,39.691,88.553,39.661,88.427,39.635z"/>
			<path fill="#FFF100" d="M57.039,32.327c0.03-0.26-0.92-0.104-1.396-0.027C56.029,32.321,56.573,32.408,57.039,32.327z"/>
			<path fill="#FFF100" d="M21.283,33.357l-0.841-0.209C20.739,33.273,20.893,33.335,21.283,33.357z"/>
			<path fill="#FFF100" d="M8.35,40.503l-0.169,0.132L8.35,40.503z"/>
			<path fill="#FFF100" d="M8.181,40.635c-0.575,0.217-2.343-0.121-2.981,0.208l0.081-0.099L4.096,40.94
				C5.207,40.911,7.539,40.953,8.181,40.635z"/>
		</g>
	</g>
</g>
<g opacity="0.44">
	<line fill="#E60012" x1="1.563" y1="14.587" x2="126.901" y2="14.587"/>
	<g>
		<line fill="none" x1="1.563" y1="14.587" x2="126.901" y2="14.587"/>
		<g>
			<path fill="#FFF100" d="M123.813,12.087c0.284-0.056,0.531,0.255,0.425,0.395c0.578-0.376,0.59,0.052,0.664-0.678
				c0.371-0.358,0.767,0.138,0.345,0.434l1.069-0.446l-0.64-0.114c0.175-0.605,1.022,0.182,1.225-0.525l-1.158,0.06l0.058-0.202
				c-0.263,0.218-0.775,0.127-0.954,0.042c0.028-0.1,0.01-0.263,0.214-0.279c-1.397-0.047-0.376,1.061-1.535,1.262
				C123.598,12.02,123.688,12.026,123.813,12.087z"/>
			<path fill="#FFF100" d="M122.625,10.604l-0.487,0.759l-0.818-0.195c-0.009,0.262-0.605,0.475-0.202,0.705
				c0.079-0.04,0.235-0.119,0.361-0.095c-0.092,0.567-1.088,0.283-0.848,0.858c0.647-0.151,0.746-0.026,1.145-0.487
				c0.592,0.054,1.024,0.184,1.301,0.391c0.176-0.087,0.201-0.434,0.424-0.503l-0.151,0.021l-0.024-0.854
				c-0.186,0.18-0.363,0.095-0.569,0.112l0.957-0.997c-0.309-0.798-1.249-0.329-1.625-0.661
				C122.555,10.376,121.717,10.016,122.625,10.604z"/>
			<path fill="#FFF100" d="M123.501,12.036l0.024-0.003L123.501,12.036z"/>
			<path fill="#FFF100" d="M51.977,17c-0.204,0.016-0.264,0.217-0.293,0.318l2.292-0.017c-0.072-0.224-0.732-0.501-0.291-0.635
				c-0.197-0.248-0.796-0.036-0.882,0.267l0.166-0.342c-0.528,0.438-0.889-0.423-0.544-0.681l-0.045,0.005l-1.462,1.686
				C51.454,17.699,51.331,17.021,51.977,17z"/>
			<path fill="#FFF100" d="M4.912,16.143c0.297-0.078,0.333-0.159,0.299-0.242L4.912,16.143z"/>
			<path fill="#FFF100" d="M50.576,17.995l-0.458,0.527C50.301,18.381,50.462,18.191,50.576,17.995z"/>
			<polygon fill="#FFF100" points="53.749,9.977 53.743,9.886 53.537,10.155 53.542,10.155 			"/>
			<path fill="#FFF100" d="M40.177,19.977l-0.15,0.036L40.177,19.977z"/>
			<path fill="#FFF100" d="M59.957,6.964L58.938,7.47c0.136-0.239-0.355-0.168-0.141-0.447c-0.078,0.038-0.441,0.133-0.342,0.256
				l0.208-0.017c-0.537,0.701-0.211,0.971-1.102,1.503c0.553,0.416,0.795,0.035,1.088-0.283l0.266-0.097l0.848-0.978L59.957,6.964z"
				/>
			<path fill="#FFF100" d="M19.109,12.172l0.011-0.057L19.109,12.172z"/>
			<path fill="#FFF100" d="M19.165,11.893l-0.044,0.223C19.175,12.005,19.385,11.897,19.165,11.893z"/>
			<path fill="#FFF100" d="M50.744,17.543c-0.015,0.13-0.073,0.289-0.168,0.452l0.341-0.394L50.744,17.543z"/>
			<path fill="#FFF100" d="M51.521,16.016l0.858-0.1l0.317-0.363C52.367,15.69,51.984,15.784,51.521,16.016z"/>
			<path fill="#FFF100" d="M41.533,20.388c-1.778,0.107,0.437-0.823-0.38-1.021c-0.493,0.097-0.667,0.489-0.976,0.61
				c1.41-0.334-0.19,1.285,1.231,1.08c-0.202,0.706-1.026,0.771-1.508,0.579c-0.545-0.681,0.478-0.499,0.602-1.166
				c-0.57,0.109-0.47,0.234-0.713,0.614c-0.896-0.159-1.854,0.837-2.389-0.107c-0.648,0.15-0.605,0.476-0.979,0.836
				c-0.074,0.728,0.965,0.382,1.205,0.957c-0.049-0.063-0.147-0.186-0.119-0.288l0.561,0.154c-0.532-0.255,0.074-0.729,0.358-0.786
				c0.207-0.017,0.618-0.049,0.562,0.153l-0.314,0.156c0.404,0.23,0.891-0.531,1.316-0.137c0.022,0.165-0.139,0.239-0.163,0.343
				c0.478-0.498,0.938-0.469,1.644-0.821l-0.409,0.724c0.564-0.801,1.845-0.573,2.731-0.152c-0.098-0.121-0.275-0.207-0.169-0.346
				c0.521-0.174,0.915,0.322,0.673,0.703c0.508-0.601,1.938,0.505,2.632-0.274l3.188-3.676l-0.379,0.199
				c-0.29-0.635-0.446-0.558,0.062-1.156c-0.499,0.336-0.308,0.846-1.057,0.872c0.293-0.319,0.368-1.048-0.35-1.123
				c-1.794,0.635-2.983,2.438-4.658,3.361c-0.062-0.488-1.377-0.353-2.017-0.467c0.244-0.525,0.719-0.675,1.211-0.781
				c-0.31-0.033-0.841-0.047-1.236-0.07L41.533,20.388z"/>
			<path fill="#FFF100" d="M45.698,18.743l-0.138-0.09L45.698,18.743z"/>
			<polygon fill="#FFF100" points="43.079,19.442 43.085,19.39 42.93,19.428 			"/>
			<path fill="#FFF100" d="M50.323,16.438l0.292-0.318l-0.228,0.127C50.312,16.313,50.276,16.379,50.323,16.438z"/>
			<path fill="#FFF100" d="M50.682,17.299L50.625,17.5l0.119,0.043C50.756,17.436,50.743,17.344,50.682,17.299z"/>
			<path fill="#FFF100" d="M34.739,15.965l-0.171,0.106C34.671,16.063,34.715,16.02,34.739,15.965z"/>
			<path fill="#FFF100" d="M39.552,19.558c0.619-0.049,0.074-0.73,0.949-0.734l-0.257-0.045c0.628-0.312,1.73-0.168,2.476-0.194
				c-0.084,0.292,0.453,0.354,0.365,0.806c0.51-0.105,1.015-0.206,1.277-0.673c0.316,0.153,0.795-0.257,1.198-0.063
				c-0.169-0.273,0.571-0.923-0.406-0.591c0.079-0.037,0.029-0.1,0.107-0.138c-0.63-0.381-0.882,0.266-1.424,0.274
				c-0.324-0.271,0.529-0.437,0.224-0.544c-0.677,0.252-2.124-0.324-2.08,0.689c-0.493,0.072-0.561-0.151-0.708-0.337
				c-0.779,1.081-2.893-0.464-2.885,0.917c0.284-0.054,0.748-0.024,1.166-0.319L39.552,19.558z"/>
			<path fill="#FFF100" d="M49.285,16.509l-0.12-0.014L49.285,16.509z"/>
			<path fill="#FFF100" d="M56.523,20.62c0.062-0.199,0.127-0.438-0.224-0.411c-0.708-0.339-1.096,0.548-1.608,0.458l0.158-0.078
				c-0.482-0.194-1.101-0.146-1.472,0.215c-0.389-0.761,1.394-0.177,0.643-0.841c0.533,0.252,1.295-0.301,1.708-0.332
				c-0.69-0.177-1.283-0.92-1.089-1.361c-1.481,0.479,0,1.646-1.295,1.942l-0.895-0.158l-0.31,0.847
				c-0.538,0.01,0.331-0.684-0.494-0.619c-0.224,0.395-0.757,0.033-0.919,0.293c0.022-0.191,0.033-0.401-0.39-0.421
				c-0.028,0.103,0.01,0.426-0.323,0.421c-0.229-0.837,0.854-0.166,0.466-0.925c-1.002-0.021-0.564,0.802-0.779,1.081
				c0.03-0.103,0.079-0.039,0.207-0.019c-0.009,0.269-0.413,0.035-0.37,0.359c0.161,0.03,0.321-0.049,0.461-0.129
				c-0.286,0.267,0.47,0.553,0.758,0.561c0.658-0.415,2.012-0.226,2.917-0.33c-0.079,0.039-0.235,0.118-0.137,0.242
				c1.287-0.036,1.819,0.218,3.292,0.002l0.259-0.904C57.086,20.326,56.821,20.491,56.523,20.62z M55.851,20.606l0.47,0.085
				C56.138,20.742,55.962,20.747,55.851,20.606z"/>
			<path fill="#FFF100" d="M116.045,10.712l0.143,0.069L116.045,10.712z"/>
			<path fill="#FFF100" d="M74.289,10.388l0.272,0.028L74.289,10.388z"/>
			<path fill="#FFF100" d="M80.404,7.588l0.398-0.198C80.646,7.403,80.522,7.481,80.404,7.588z"/>
			<polygon fill="#FFF100" points="112.796,10.654 112.783,10.648 112.72,10.693 			"/>
			<path fill="#FFF100" d="M92.671,9.571l0.222,0.186C92.882,9.673,92.799,9.612,92.671,9.571z"/>
			<polygon fill="#FFF100" points="80.331,7.625 80.355,7.641 80.404,7.588 			"/>
			<path fill="#FFF100" d="M71.595,7.916L71.42,8L71.595,7.916z"/>
			<path fill="#FFF100" d="M71.979,10.318l-0.169,0.085L71.979,10.318z"/>
			<path fill="#FFF100" d="M62.556,8.672l-0.367,0.12C62.369,8.778,62.477,8.732,62.556,8.672z"/>
			<path fill="#FFF100" d="M71.007,9.763l-0.057,0.116L71.007,9.763z"/>
			<polygon fill="#FFF100" points="118.376,13.239 118.354,13.242 118.345,13.341 			"/>
			<path fill="#FFF100" d="M119.269,12.005l0.323-0.069L119.269,12.005z"/>
			<path fill="#FFF100" d="M98,10.936c0.097,0.122,0.325,0.269,0.219,0.408C98.405,11.167,98.393,10.738,98,10.936z"/>
			<path fill="#FFF100" d="M116.588,18.544l0.205-0.288C116.657,18.38,116.537,18.481,116.588,18.544z"/>
			<path fill="#FFF100" d="M116.792,18.256l0.199-0.191L116.792,18.256z"/>
			<path fill="#FFF100" d="M95.529,17.97l-0.112-0.122C95.432,17.963,95.472,17.987,95.529,17.97z"/>
			<path fill="#FFF100" d="M119.851,12.07c0.058-0.202,1.46-0.642,0.281-0.744c0.045-0.631,0.756-0.291,1.07-0.446
				c-0.228-0.147,0.114-0.403,0.044-0.629c-0.156,0.076-0.341,0.257-0.599,0.212c-0.119-0.287,0.272-0.482,0.578-0.375
				c-0.376-0.332,0.478-0.499-0.055-0.753c-1.137,0.222-1.942,0.451-2.742,1.369c0.648-0.15,1.375-0.339,1.906-0.086l-0.224,0.544
				c-0.601-0.479-0.972-0.122-1.564-0.172l1.329,0.288c0.622,0.454,0.205,0.559-0.285,0.657
				C119.711,11.941,119.821,11.975,119.851,12.07z"/>
			<polygon fill="#FFF100" points="118.957,16.844 118.979,16.858 119.035,16.805 			"/>
			<path fill="#FFF100" d="M62.623,19.681l-0.114,0.205C62.604,19.792,62.634,19.73,62.623,19.681z"/>
			<path fill="#FFF100" d="M118.164,14.209L118.164,14.209L118.164,14.209z"/>
			<path fill="#FFF100" d="M65.462,19.722l-0.015,0.048L65.462,19.722z"/>
			<path fill="#FFF100" d="M66.222,7.991l-0.02-0.072C66.142,7.949,66.171,7.975,66.222,7.991z"/>
			<path fill="#FFF100" d="M65.465,19.672l-0.003,0.05L65.465,19.672z"/>
			<path fill="#FFF100" d="M79.271,17.673c0,0-0.043-0.094-0.113-0.183C79.132,17.54,79.158,17.6,79.271,17.673z"/>
			<polygon fill="#FFF100" points="76.545,16.868 76.545,16.868 76.496,16.809 			"/>
			<path fill="#FFF100" d="M97.355,8.484l-0.321,0.028L97.355,8.484z"/>
			<path fill="#FFF100" d="M65.447,19.77l-0.136,0.189L65.447,19.77z"/>
			<polygon fill="#FFF100" points="83.426,14.925 83.343,14.985 83.392,15.013 			"/>
			<path fill="#FFF100" d="M84.849,15.326l-0.098,0.182c0.507-0.227,1.44,0.019,1.55-0.559c-0.172,0.014-1.065-0.326-0.913-0.665
				c-0.354,0.145-0.877-0.262-1.067-0.166c0.581,0.317,0.063,0.488-0.329,0.683c-0.356-0.168,0.066-0.464-0.24-0.57l-0.825,0.062
				l0.719,0.078l-0.218,0.555l0.074-0.053C84.716,14.612,83.603,15.688,84.849,15.326z"/>
			<path fill="#FFF100" d="M84.75,15.508l-0.195,0.137C84.67,15.636,84.715,15.579,84.75,15.508z"/>
			<path fill="#FFF100" d="M89.719,16.425l0.216-0.088L89.719,16.425z"/>
			<path fill="#FFF100" d="M53.306,15.645c0.021,0.164,0.729,0.502,0.717,0.073l0,0l-0.636-0.134L53.306,15.645z"/>
			<path fill="#FFF100" d="M103.255,13.938l-0.238-0.011l-0.046,0.066C103.02,14.058,103.176,13.98,103.255,13.938z"/>
			<path fill="#FFF100" d="M85.607,14.083c-0.13,0.065-0.188,0.133-0.219,0.201C85.472,14.25,85.549,14.194,85.607,14.083z"/>
			<path fill="#FFF100" d="M103.299,14.956c0.1,0.122,0.248,0.309,0.27,0.472c0.206,0.004,0.35-0.221,0.56-0.301
				C103.892,15.189,103.619,15.146,103.299,14.956z"/>
			<path fill="#FFF100" d="M104.146,15.12l-0.017,0.007L104.146,15.12z"/>
			<path fill="#FFF100" d="M53.388,15.584l0.26-0.196l-0.127-0.022c0.047-0.63,0.652-1.105,1.37-1.03
				c-0.048-0.031-0.423-0.104-0.964-0.201l0.181-0.209c0.803,0.134,1.558,0.252,2.263,0.362c-0.259,0.123-0.524,0.218-0.84,0.162
				c0.751,0.662,1.914-0.348,2.272,0.511c-1.155,0.751-1.708,0.332-2.925,0.594c-0.623-0.643,0.784-0.391,0.822-0.755l-0.689-0.176
				c0.092,0.386-1.343,0.235-0.986,1.094c1.511,0.295,3.016,0.417,4.321,0.406l-1.257,4.39c0,0.062-0.023,0.154-0.086,0.301
				c1.289-0.036,0.62-1.694,0.933-1.854c0.285-0.052,0.528-0.435,0.775-0.124l-0.135,0.239c0.806-0.226,0.251-0.644,0.969-0.567
				c0.579-0.375-0.51-0.092-0.14-0.45c0.767,0.137,0.474-1.189,1.667-0.657c-0.058,0.201,0.132,0.711-0.565,0.799l0.682,0.441
				c-0.805,0.228-0.314,0.155-1.138,0.221c-0.38,0.621-0.29,1.009-0.64,1.531c0.311-0.155,0.25-0.645,0.713-0.617
				c0.561,0.153-0.088,0.304-0.144,0.506c0.742-0.717,0.828,0.626,1.491-0.051c-0.13-0.715-0.001-0.691-0.478-1.146
				c0.471-0.234,1.071,0.243,1.027,0.871l0.097-0.566c0.11,0.138,0.485,0.147,0.509,0.292l0.159-0.279
				c-0.346-0.433-0.624-0.642-1.221-0.429c0.243-0.381-0.33-0.961,0.445-1.087c0.334,0.004,0.041,0.323,0.063,0.486
				c1.737-0.434,1.746,0.947,3.117,0.61c-0.342,0.257-1.178-0.104-1.833,0.31c0.395,0.494,0.854-0.165,1.237-0.099
				c-0.342,0.259-0.398,0.46,0.003,0.692l0.166-0.343c0.241,0.005,0.674-0.038,0.707,0.129c0.011-0.129-0.096-0.22-0.314-0.327
				c0.606-0.474,1.745-0.694,2.818-0.45c-0.076,0.729-1.531,0.419-0.752,0.978c0.441-0.13,0.799-0.916,1.561-0.515
				c-0.323,0.418,0.346,0.434,0.337,0.696l1.057-0.872c0.511,0.09,1.101,0.142,1.571-0.093c-0.157,0.08-0.364,0.097-0.619,0.049
				c0.722-0.878,1.327,0.29,2.24-0.077l-0.421,0.297c0.689,0.174,1.237-0.098,1.786-0.372l-0.016,0.527
				c0.073-0.727,1.261-0.888,1.525-1.106c-1.688,0.494-1.45-0.575-3.085-0.021c0.615-0.739,1.057-0.873,1.722-1.549
				c0.254,0.046,0.354,0.168,0.374,0.331c0.215-0.279,0.28-0.744,0.674-0.938l0.119,0.285c1.121,0.306,1.014-1.199,2.086-0.955
				c0.211,0.673-0.926,0.895-1.583,1.308c0.506,0.618-1.07,0.313-0.477,1.19l0.322-0.421c0.335,0.007,0.298,0.37,0.09,0.388
				c0.442-0.136,0.335,0.006,0.5-0.336c1.7-0.069-0.181,0.869,1.482,1.166c-0.188,0.179-0.648,0.149-0.558,0.539l-0.894-0.161
				l-0.018,0.527c1.131,0.043,1.795-0.634,2.311-1.5c-1.02,0.511-0.111-0.549-0.645-0.802c0.199-0.261,0.386-0.117,0.499,0.031
				c0.076-0.153,0.589-0.251,0.521-0.539c0.244,1.264,2.456,1.286,1.951,2.575c0.63,0.377,2.581-0.336,3.948-0.411l-0.371,0.359
				c1.431,1.104,1.262-0.89,2.096-1.218c-0.734,0.452,0.651,0.539,0.948,0.912c0.657-0.416,1.19-1.115,2.116-1.055
				c0.191,0.511,0.216,1.363,0.807,1.415l0.399-0.458c0.589,0.052,1.374-0.339,1.75-0.007l-0.08,0.041
				c0.661,0.275,0.686-0.517,0.173-0.61l0.628-0.312l0.021,0.165c0.832-0.329,1.604-1.146,2.92-1.283
				c-0.351,0.52,0.999,0.974-0.19,1.133c0.342-0.257-0.188-0.511-0.258-0.735c-0.43-0.118-0.818,0.447-1.007,0.507
				c0.141,0.29,0.016,0.997-0.212,1.397c0.851-0.858,3.243-0.059,3.441-1.456c1.052,0.08,2.425-0.257,3.626,0.01
				c-0.05-0.063-0.147-0.186-0.119-0.285l1.036,0.606l-0.238,0.119l0.683,0.438c0.07,0.226-0.195,0.443-0.477,0.499
				c-0.161,0.077-0.307-0.107-0.149-0.188c-0.735,0.455,0.61,0.22,0.132,0.715c-0.18-0.084-0.414,0.032-0.542,0.011
				c0.837,0.359,1.226-0.523,1.742,0.256c0.399-0.457,1.212-0.95,1.972-0.55c-0.295,0.319,0.824-0.065,0.444,0.557
				c0.293-0.318,0.974,0.121,1.089-0.282c-0.106,0.139-0.439,0.133-0.668-0.014c0.314-0.155,0.353-0.522,0.735-0.452
				c0.049,0.063,0.021,0.161,0.021,0.161c0.499-0.334,0.169-1.296,1.043-1.298c2.297-0.279-0.325,1.374,0,1.644
				c0.085-0.302,1.097-0.545,1.553-0.253l-0.109,0.142c0.234-0.119,0.579-0.377,0.827-0.066c0.143-0.505,0.416-0.987,0.579-1.329
				l1.032-0.08l-0.214,0.278c0.235-0.116,0.442-0.133,0.65-0.149c0.089,0.388-0.215,0.277-0.529,0.436
				c0.168,0.35,0.375,0.333,0.618-0.048l-0.128-0.022c0.265-0.221,1.234-0.789,0.467-0.926c0.577-0.375,0.758,0.402,1.152,0.206
				c0.04,0.325-0.322,0.419-0.124,0.666c0.383,0.069,0.638,0.115,0.952-0.04c-0.306-0.109,0.086-0.305-0.396-0.496
				c0.186-0.181,0.675-0.251,0.656-0.413c-0.157,0.077-0.266,0.218-0.54,0.011c0.519-0.174,1.06-0.185,1.591,0.07l-0.133,0.221
				c0.691-0.564,1.729-0.418,2.192-1.074l-0.204-0.132c-0.167,0.182-0.506,0.202-0.641,0.034c0.519-0.173-0.367-0.597,0.181-0.87
				c0.755-0.289,1.426,0.415,1.837-0.308c-0.718-0.074-1.685-0.46-1.977-0.141l0.462,0.031l-1.056,0.871
				c-0.041-0.326-0.934,0.205-0.916-0.322c0.364-0.094,0.697-0.088,0.981-0.143c-0.068-0.226-0.974-0.122-1.357-0.189l0.482,0.19
				c-0.861,0.43-1.962,0.288-2.797,0.615c0.657-0.413-0.835-0.36-0.308-0.796c0.214-0.28,0.561,0.151,0.462,0.029
				c0.065-0.467-0.511-0.092-0.681-0.44c-0.088,0.304-0.941,0.469-0.438,0.822c-0.276-0.207-0.882,0.269-1.258-0.064
				c0.111,0.552-0.703,0.353-0.841,0.595c-0.165-0.03-0.307-0.137-0.419-0.265c0.349-0.172,0.776-0.403,1.221-0.657l-0.001,0.004
				c0.178,0.083,0.511,0.09,0.413-0.033l0.007-0.207c0.886-0.505,1.772-1.026,2.226-1.253l-0.217,0.28
				c0.666-0.678,1.337,0.026,2.023-0.487c-0.028,0.101-0.106,0.14,0.021,0.161c0.846,0.099,1.183-0.849,1.863-0.409l-0.085,0.302
				c0.058-0.036,0.459-0.285,0.379-0.62c-0.57,0.11-0.677,0.25-1.187,0.159c0.209-0.274,0.663-0.505,0.997-0.506l0.037-0.53
				c0.429-0.561,0.866,0.261,1.294-0.297l-0.502-0.356l0.085-0.054c-0.227,0.054-0.423,0.123-0.477,0.25
				c-0.755,0.288-1.143-0.471-1.265-0.756c-0.353-0.172,0.127-0.668,0.085-0.995c-0.569,0.111-0.536,0.7-1.105,0.811
				c-0.18-0.084-0.07-0.223,0.009-0.264l-0.421,0.297c-0.021-0.162-0.995-0.283-0.418-0.658l0.369,0.022
				c-0.794-0.381-2.169-0.802-2.125-1.396c-0.434-0.131-0.313,0.156-1.003-0.021c-0.321,0.421,0.026,0.854-0.729,1.143l0.595,0.21
				l0.357-0.252l-0.619,0.049c0.391-0.195,0.321-0.42,0.437-0.825c0.953-0.041,1.214,0.694,1.696,0.888
				c-0.295,0.319-0.806,0.228-0.615,0.739c-0.477-0.456-0.528,0.437-1.082,0.019l0.106-0.139c-0.449,0.396-0.511-0.091-0.882,0.268
				c0.028-0.103-0.021-0.164-0.068-0.226c-0.807,0.228,0.244,0.312-0.565,0.803c-0.718-0.077-0.233-0.839-0.431-1.086
				c1.204-0.688-0.025-0.854,1.278-1.417c-0.005-0.69-0.516-0.781-1.213-0.693c0.454,0.294-0.288,1.011,0.314,1.486
				c-1.041,0.348-0.954,1.688-2.117,1.058l0.027-0.103l-0.478,0.499l-0.658-0.277c0.408-0.724,0.911-0.369,1.232-0.788
				c-0.802-0.726-1.077,0.711-2.002,0.651c-0.77-0.825,0.941-0.47,0.938-1.159c-0.186,0.181-0.69-0.176-0.631-0.378
				c0.866,0.261,0.527-0.434,1.492-0.053c-0.47,0.234,0.072,0.226-0.016,0.53c0.138-0.242,1.041-0.348,1.679-0.233
				c0.146-0.504-0.554-0.417-0.957-0.647c-0.763,0.554-1.555-0.437-2.142,0.201c-0.824,0.065-0.062-0.487-0.111-0.55
				c-0.74-0.237-0.322,0.421-0.557,0.537c-1.118,0.384-1.242-0.594-2.039-0.629c-0.663,0.679-2.276,0.444-3.407,0.401
				c0.137-0.239-0.013-0.426-0.081-0.651C101,9.612,101.242,9.23,100.4,9.823l0.711,0.339c-0.571,0.111-1.029,0.773-1.553,0.254
				c0.694,0.867-0.92,0.632-1.34,0.928c-0.583-0.314-1.167,0.323-1.485-0.211l0.079-0.04l-0.846-0.098l0.103-0.828
				c-0.582-0.317-1.296,0.298-1.096,0.545c-0.611-0.213-0.25-0.309-0.339-0.696c0.344-0.259,1.085-0.973,1.296-0.3
				c-0.049-0.063-0.178-0.085-0.208,0.017c1.59,0.378,0.518-1.008,1.312-1.22c-0.414-0.059-0.722-0.459-1.163-0.239
				c-0.205,0.018-1.04,0.346-1.46,0.642c0.578-0.375,0.875-0.004,1.328,0.289c-0.384-0.068-0.447,0.399-0.776,0.128l0.107-0.141
				l-0.42,0.296c-0.063-0.488-1.151-0.204-0.514-0.78c-0.57,0.11-0.196,0.442-0.715,0.615l1.024,0.183l-0.018,0.526
				c-0.374,0.358-0.464-0.03-0.876,0.004l0.035,0.589l-0.731-0.501c0.09,0.386-0.472,0.234-0.629,0.313
				c-0.403-0.231-0.142-1.14-0.828-0.625l0.049,0.062c-0.393,0.197-0.625,0.313-1.187,0.159c0.03-0.1,0.185-0.178,0.262-0.217
				c-0.787-0.302-2.049,0.589-2.408-0.271c0.064-0.465,0.392-0.195,0.409-0.722c1.212,0.691,0.85-0.856,2.277-0.445
				c0.066,1.181,1.204-0.687,1.476,0.479c-0.56-0.155-1.305,0.561-1.205,0.685c0.516-0.065,1.239-0.091,1.599,0.031
				c-0.317-0.386-0.215-1.035,0.015-1.44c-0.834,0.328-2.351-0.472-3.531-0.577l0.132,0.712c-1.02,0.51,0.124-0.666-0.672-0.703
				l-0.351,0.521l-0.051-0.062L87.63,8.659c0.413-0.031,0.223-0.544,0.677-0.249c0.403,0.231-0.018,0.527-0.132,0.932
				c-0.276-0.21-1.258-0.064-0.652-0.541l-1.077,0.708c0.008-0.262,0.243-0.381,0.353-0.519L86.02,9.115l0.028-0.1
				c-0.626,0.312-1.501,0.315-1.98,0.815c1.066,0.506-0.508,0.597-0.417,0.985c-0.383-0.068-0.5-1.309,0.313-1.801
				c0.22,0.409,0.778-0.126,1.188-0.158c-0.53-0.254-0.695,0.085-1.11,0.119c0.292-0.318-0.552-0.416-0.543-0.681
				c0.056-0.203,0.229-0.809,0.762-0.554c0.796,0.035,0.083,0.65,0.318,0.533c0.211,0.675,1.11-0.12,1.592,0.072
				c0.051,0.063-0.108,0.14-0.186,0.179c0.415-0.032,1.288-0.035,1.352-0.501l-1.038,0.346c-0.226-0.146,0.321-0.421-0.003-0.693
				c-0.236,0.118-0.52,0.176-0.827,0.069l0.058-0.203c-0.63-0.377-1.614-0.235-2.338-0.045c-0.162,1.031-0.541,1.652-0.859,2.762
				c-1.079,0.022-2.211-0.021-3.361-0.226c0.272-0.482,0.997-0.673,1.794-0.637l-0.341,0.26c0.64,0.113,0.882-0.269,1.147-0.486
				c-0.03,0.102,0.019,0.163,0.119,0.287c0.569-0.111,0.87-0.694,0.575-1.066l-0.188,0.179l-0.395-0.496
				c-0.15,0.961-1.313,0.415-1.95,0.84c0.438-0.424,0.815-1.309,1.38-0.726l-0.061-0.49c0.489-0.071,0.886,0.424,1.158-0.058
				l-0.57,0.111l0.01-0.266c-0.404,0.034-0.919,0.448-1.292,0.153c-0.329,0.326-0.637,0.845-1.513,0.727l0.029-0.102
				c-0.594,0.902-1.655-0.559-2.104-0.16c-0.26,0.906,0.964,0.382,1.261,0.753c-0.37,0.358-0.766-0.137-0.448,0.397
				c-0.863,0.432-0.516-0.781-1.229-0.164l0.405,0.23c-0.32,0.42-0.854,0.165-1.177,0.585c-0.044,0.629,0.542-0.01,1.153,0.203
				l-0.273,0.482l1.224-0.523c0.361-0.785,0.025-0.791,0.789-1.343c0.396,0.494,0.627,1.33,0.454,1.936
				c-0.325-0.27-0.925-0.057-0.907-0.587c-0.35,0.522-1.341,0.93-1.152,1.44l-0.132,0.034c-0.416-0.568-1.043-1.016-2.173-1.134
				c-0.22-0.01-0.252,0.341-0.202,0.84c-0.238-0.15-0.462-0.289-0.689-0.31c0.174-0.229,0.286-0.53,0.619-0.559l-1.754-0.176
				l0.135-0.239l-0.691,0.346c0.39-0.135,0.993,0.009,0.845,0.531c-0.785,0.39-1.229-0.168-1.895,0.509
				c0.004-0.952-0.222-1.099,0-1.644l0.079,0.048c0.25-0.515,0.782-1.075,1.194-1.2c-1.458-0.313-1.081,0.021-2.36-0.207
				c-0.111-0.552,1.176-0.588,0.879-0.959l1.2,0.268c-0.204,0.039-0.229,0.163-0.326,0.252c0.827-0.396,1.127,0.105,1.749-0.528
				c0.394,0.255-0.613,0.421-0.181,0.514c-0.366,0.103-0.725,0.722-0.9,1.149c0.945,0.221,0.537-0.699,1.341-0.928l0.602,0.48
				c0.363-0.096-0.119-0.289-0.14-0.45c0.442-0.134,0.609,0.214,0.944,0.222c-0.098-0.125-0.324-0.27-0.268-0.474
				c0.555,0.418,1.102,0.145,1.616,0.925c-0.297-0.371,0.339-0.947,0.575-1.065L75.875,6.99c-1.343,0.24-2.181-0.123-3.632,0.253
				l0.085-0.302c-2.285-0.938-1.897,1.465-3.852,1.487c-0.055-0.752-0.904,0.104-0.83-0.625c0.589,0.052,0.47-0.234,0.302-0.582
				c-0.343,0.259-0.565,0.801-1.226,0.525c0.243-0.382-0.338-0.699,0.31-0.847c-0.896-0.161-1.387-0.09-1.844,0.569
				c-1.46,0.642-0.438-0.816-1.888-0.44l0.213-0.281l-0.903,0.105l0.297,0.371l-1.067,0.446c-0.657,0.413,0.267,0.472,0.182,0.774
				l0.222-0.544c0.432,0.13,1.041-0.345,1.131,0.041c-0.706,0.083-0.537,0.512-0.817,0.729l0.672-0.223l0.219,0.409
				c0.667,0.014,1.182,0.104,1.58-0.355c-0.276-0.207-0.45,0.398-0.697,0.089c0.328-0.684,1.155-0.748,1.959-0.977
				c0.021,0.162,0.276,0.208,0.168,0.348C66.44,8.025,66.3,8.02,66.222,7.991c0.06,0.305-0.388,0.5,0.368,0.685
				c-0.271,0.482-0.837,1.283-0.817,1.447c-0.441,0.133-1.06,0.181-1.414,0.011l0.028-0.101c-0.382-0.068-1.194,0.426-1.258-0.063
				c-0.235,0.117-0.882,0.268-0.223,0.543l-1.088,0.283c0.18-0.871-0.843-1.049,0.234-1.762c-0.037,0.02-0.433,0.121-1.068,0.28
				l0.03-0.084l0.084-0.155c0.129,0.024,0.207-0.015,0.228,0.149c0.38-0.621-0.18-0.778-0.772-0.828l-0.14,0.491
				c-0.512-0.277-0.818-0.716-1.5-0.503l-1.593,1.837l-0.469,0.115c-0.208-0.286-0.909-0.071-0.633-0.644
				c-0.071-0.227,0.165-0.342,0.471-0.234c0.047,0.061-0.029,0.1,0.02,0.161c0.086-0.303,0.123-0.666-0.25-0.997
				c0.381,0.066,0.431,0.128,0.695-0.09l-0.383-0.068c0.569-0.109,1.44-0.806,1.428-1.23c-0.175,0.605-0.54,0.009-0.847-0.099
				c0.235-0.116,0.734-0.452,0.352-0.521c-0.136,0.242-1.177,0.587-0.438,0.823c-0.313,0.157-0.733,0.454-1.088,0.283
				c0.417-0.297,0.143-0.502,0.259-0.907C56.066,7.172,56.079,7.598,56.02,7.8c-1.062-0.508-1.492-1.592-2.688-1.169
				c-0.157,0.078,0.725-0.188,0.611,0.214C53.07,7.54,52.807,6.111,52.05,6.405l0.213,0.673c-0.236,0.116-0.807,0.228-1.089,0.283
				c-0.072-0.226-0.879-0.688-0.281-0.898c-1.299-0.392-1.149,1.438-2.638,1.227c0.689,0.176,0.769,0.137,1.309,0.128
				c-0.578,0.374-0.088,0.301-0.152,0.767c-0.346-0.433-1.465-0.048-0.703-0.602c-0.461-0.028-1.386-0.088-1.6,0.19l0.404,0.233
				c-0.668-0.014-1.325,0.399-1.597,0.882c0.828-0.063,0.8-0.918,1.854-0.836c1.141,0.469-0.272,0.481,0.478,1.145l0.813-0.491
				l-0.384-0.069c0.124-0.666,1.258,0.067,1.156-0.748c0.826,0.627,1.071,0.245,1.979,0.831c0.214-0.279-0.119-0.287-0.375-0.332
				c0.46,0.029,0.486-0.762,1.089-0.283c0.306,0.106,0.095-0.566-0.446-0.558c0.462,0.03,0.904-0.103,1.415-0.011l-0.522-0.52
				l0.539-0.01l-0.454-0.295c1.031-0.08,2.212,0.026,2.755,0.706c-0.891,0.53-2.375,0.318-2.891,1.182
				c0.198,0.248,0.714-0.616,0.973,0.12l0.271-0.481c0.314-0.157,1.04-0.347,1.103,0.141c-0.859,0.354-1.084,0.782-1.521,1.198
				c-0.003,0.103-0.082,0.156-0.207,0.179l-0.014,0.013l0.008-0.013c-0.255,0.047-0.672-0.004-0.911,0.116
				c-0.303-0.107-0.094-0.388-0.062-0.487c-1.036-0.611-1.753,0.959-2.847,0.553c-0.011-0.427-0.858-0.523-0.594-0.744
				c-0.638-0.112-0.99,0.407-1.41,0.703c-0.092-0.386-0.975-0.119-0.653-0.539l-0.585,0.64c-0.403-0.232-1.239,0.095-1.378-0.353
				c-0.442,0.133-0.124,0.667-0.735,0.451c0.028-0.099-0.02-0.161,0.107-0.138c-0.276-0.209-0.946-0.224-1.237,0.097
				c0.43,0.13,0.099,0.124,0.61,0.215c-0.011,0.264-0.586,0.637-1.167,0.322c0.792-0.654-0.624-0.642-0.253-1
				c-1.257-0.066-1.979,0.814-3.027,1.424c-1.237,0.097-2.772-0.177-3.742,0.394l0.128,0.023l-0.578,0.372
				c-0.334-0.005-0.005-0.688-0.523-0.517c0.175-0.604,0.903-0.104,1.432-0.541c-0.908-0.586,0.841-0.593,0.238-1.071
				c-0.346,1.212-1.936,0.186-2.726,0.841c-0.769-0.138,0.351-0.52-0.031-0.59l-0.245,0.383c-0.304-0.109-0.404-0.232-0.396-0.497
				c-0.816-0.199-1.75,0.008-2.434,0.521c0.883-0.267-0.299,0.584,0.573,0.58c-0.264,0.218-0.833,0.328-1.372,0.34
				c0.519-0.173-0.694-0.867,0.457-0.662c-0.161-0.612-0.568,0.11-1.082,0.021c0.263-0.22,0.845-0.595,0.793-0.656
				c-0.771,0.817-2.479-0.494-2.779,0.087c-0.56,0.539-1.421,0.968-2.105,1.482c-0.681-0.439-1.436-0.149-2.203-0.287l0.136-0.239
				c-0.433-0.131-1.108,0.121-1.748,0.007l-0.142-0.451c-0.44,0.134-1.265,0.199-1.935,0.187c-0.007,0.265,0.612,0.215,0.319,0.532
				c0.334,0.009,0.618-0.048,0.499-0.333c0.334,0.005,0.348,0.432,0.622,0.641l-1.294,0.298c-0.104-0.03-0.141-0.067-0.147-0.106
				l-0.095,0.487c-0.335-0.005-0.433-0.128-0.376-0.328c-0.728,0.187-0.98,0.831-1.747,0.694c0.324-0.419,0.538-0.699,1.079-0.709
				l-0.875,0.003c0.4-0.461,1.915-0.348,1.655-1.085c-0.961,0.306-2.364,0.746-3.206,1.34c-0.447-0.559-1.11,0.119-1.847-0.12
				c-0.101-0.122-0.327-0.269-0.19-0.509l0.206-0.018c-0.977-0.119-2.092,0.264-2.955,0.695l-0.444-0.559
				c-1.486-0.211,0.28,0.898-1.242,1.051c-0.368-0.594-1.87-0.278-1.931-0.768c-0.285,0.056-0.414,0.033-0.449,0.399
				c0.256,0.044,0.824-0.066,0.502,0.354c-0.52,0.172-0.767-0.139-1.179-0.106c0.028-0.101,0.323-0.42,0.165-0.341
				c-1.011,0.244-2.888,0.229-3.846,1.225c0.363-0.095,0.402-0.46,0.885-0.269c-0.008,0.265-0.265,0.221-0.371,0.359
				c0.061,0.489,0.499-0.337,1.002,0.021l-0.843,0.593l0.474,0.453L1.563,16.34c1.583,0.336,2.31-1.498,3.602-0.845
				C4.961,15.648,5.16,15.778,5.211,15.9c0.411-0.241,0.902-0.241,1.154-0.563L7.02,15.35c-0.007,0.263-0.259,0.91-0.928,0.897
				c2.338,0.044,4.129-1.282,6.481-0.809c0.099,0.124-0.313,0.157-0.137,0.239c0.315-0.155,0.835-0.328,0.813-0.49
				c-0.028,0.101-0.088,0.303-0.292,0.32c1.217-0.261,1.86,0.543,2.645,0.151c0.042,0.326-0.6,0.213-0.5,0.335
				c1.2,0.267,1.823-0.734,3.033-0.732c-0.4,0.46,0.267,0.474,0.594,0.743c0.991-0.407,3.102-0.506,4.604-0.823
				c-0.396,1.149,1.671,0.033,1.794,1.009c0.334,0.006,0.854-0.165,0.891-0.531c-0.186,0.181-0.639-0.115-0.579-0.315
				c0.489-0.07,1.235-0.097,1.302-0.563l0.604,0.479c0.037-0.365,0.23-0.808,0.564-0.801c0.742,0.929-0.082-0.65,0.979-0.145
				c-0.242,0.38-0.457,0.662-0.544,0.964c0.513,0.092,0.443-0.132,0.806-0.227c0.12,0.285-0.359,0.785-0.75,0.979l0.66,0.277
				c0.636-0.576,1.741-1.388,2.764-1.203c-0.166,0.34-0.499,0.333-0.23,0.806c0.44-0.134,1.027-0.773,1.608-0.455
				c-0.08,0.038-0.03,0.101-0.109,0.14c1.021-0.509,0.769,0.137,1.693,0.195l-0.044,0.174l0.564-0.348
				c1.184-0.848,1.32,0.555,2.03,0.892l-0.157,0.079c0.445,0.559,1.875,0.018,2.282,0.248c-0.504-0.355-0.168-0.349-0.537-0.943
				c-0.443,0.133-0.308,0.845-1.048,0.607c0.095-0.566,1.028-0.77,1.22-1.214c0.414-0.033,0.695,0.865,0.736,1.194
				c1.032-0.084,1.612,0.231,2.877,0.032c0.452-0.397,0.797-1.609,1.854-0.836l-0.058,0.202c0.036-0.366,0.512,0.091,0.727-0.189
				c-0.366-0.597,0.45-0.397,0.005-0.954c0.618-0.048,0.721,0.768,0.783,1.255c0.437-0.823,1.221,0.429,2.164-0.04
				c-0.168,0.342-1.197,0.422-0.773,0.817l1.212-0.951l-0.54,0.01c0.919-0.632,1.178,0.103,1.711,0.359
				c0.104,0.243-0.245,0.334-0.507,0.323c0.283,0.035,0.734-0.071,1.103-0.262c0.279-0.261,1.245-0.584,1.633-1.027l0.156,0.05
				l-0.071,0.106l0.201-0.067l0.487,0.13l-0.098,0.114l0.188-0.09L53.388,15.584z M6.488,15.096l-0.103,0.219
				C6.492,15.247,6.462,15.188,6.488,15.096z M66.812,13.066c0.306,0.106,0.551-0.274,0.719,0.074
				c0.017,0.144-1.516,1.763-1.991,2.204c-0.587,0.091-1.211,0.071-1.573-0.083l0.182-0.089c2.769,0.025,1.603-0.916-0.057-2.16
				l2.841,0.341L66.812,13.066z M67.545,15.145l0.569-0.094c-0.084,0.248,0.04,0.523-0.502,0.385
				C67.653,15.295,67.617,15.207,67.545,15.145z M67.943,14.753l0.14,0.051L67.943,14.753z M57.202,14.415l0.391,0.058l-0.056,0.015
				C57.353,14.485,57.254,14.455,57.202,14.415z M58.4,14.589l0.366,0.053l-0.128,0.454C58.484,14.975,58.441,14.795,58.4,14.589z
				 M61.309,16.327c0.611,0.216,0.553-1.226,1.118-0.385c0.089-0.386-0.058-0.542-0.278-0.62l0.126-0.26l0.629,0.053
				c0.176,0.052,0.333,0.115,0.286,0.274c-0.046,0.63-0.793,0.654-1.016,1.199C61.989,16.768,61.114,16.771,61.309,16.327z
				 M106.58,14.531l-0.43-0.11c0.166,0.34,0.339,0.752,0.662,0.949c0.691-0.778,1.306,0.125,2.075,0.263l0.431-0.311
				c-0.084-0.176-0.144-0.317-0.161-0.372C107.59,15.732,108.518,13.393,106.58,14.531z M101.977,13.712l-0.215,0.279
				c0.124,0.395,0.689-0.031,1.256-0.063c0.168-0.224,0.533-0.442,0.757-0.162l-0.087,0.304c0.1,0.268,0.662,0.284,1.294,0.289
				l-0.257,0.318c-0.164,0.221-0.354,0.38-0.578,0.443c0.127-0.045,0.28-0.028,0.485,0.123l-1.116,1.076
				c0.561,0.153,0.646-0.839,1.333-0.664c-0.046,0.629-0.004,0.954-0.737,1.407c-0.64-0.116,0.036-0.367-0.29-0.635
				c-0.486,0.762-0.624-0.642-1.138,0.221c-0.619,0.047-0.426-0.394-0.623-0.641c0.617-0.049-0.29-0.637,0.486-0.765
				c-0.631-0.376-0.458,0.663-0.989,0.41L101.474,15c-0.484-0.191-1.527-0.537-2.183-0.124c0.553,0.416-0.322,0.42-0.231,0.81
				c0.096-0.57,0.855-0.166,0.846,0.096c-0.439,0.134-1.551,0.255-1.777,0.108l0.838,0.36c-0.293,0.321-1.341,0.929-1.37,1.028
				c-0.327-0.27-0.816-0.195-0.986-0.546l0.606-0.476l0.218,0.411l0.35-0.521c-0.394-0.19-1.224-0.543-1.404-1.002
				c0.925,0.045,2.338-0.289,4.055-1.444c0,0-0.029,0.104-0.108,0.142C101.202,13.839,101.279,13.8,101.977,13.712z M78.339,12.946
				l0.058,0.487c1.36,0.189,2.326-1.071,3.731-0.821c-0.194,0.444-0.726,0.191-0.654,0.414c0.845,0.099,0.73-1.142,1.559-0.518
				c-1.188,0.162,0.74,0.238-0.33,0.685c1.49-0.742,3.078,0.283,4.059,0.141c-0.247-0.312,0.401-0.459,0.43-0.561
				c0.256,0.045,0.169,0.35-0.037,0.364c0.505,0.273,0.594,0.679,0.51,1.069l-1.033,0.055c0.335,0.137,0.517,0.469,0.789,0.534
				v0.003l0.001-0.003c0.119,0.03,0.253,0.013,0.43-0.102c0.176-0.169,0.142-0.239,0.143-0.47c0.331-0.318,0.744-0.708,1.272-1.186
				l-0.03,0.099l1.111-0.118l-0.136,0.237l0.653-0.412c-0.016,0.527,0.2,0.247,0.163,0.611c0.409,0.923,1.452-0.377,2.339,0.047
				l-0.136,0.24c0.48-0.5,1.672,0.034,2.438,0.168l-0.027,0.102c-0.467,0.209-0.559,0.514-0.344,0.759
				c-0.161,0.108-0.415,0.179-0.564,0.3c-0.257-0.045-0.981,0.144-1.043-0.345c0.539-0.01,0.488-0.071,0.242-0.379
				c-0.528,0.435-1.522,0.151-1.469,0.903c-0.747,0.026-0.227-0.146-0.759-0.399c-0.069-0.227,0.117-0.405,0.302-0.582l-2.169,0.302
				c-0.095,0.566,1.397,0.516,0.654,1.229c-0.185,0.18-0.16,1.032-0.899,0.795c-0.009-0.076,0.054-0.131,0.127-0.171
				c-0.336,0.106-0.392-0.098-0.756-0.205c-0.111-0.551,0.449-0.397,0.691-0.778c-0.235,0.116-0.499,0.334-0.756,0.289l0.059-0.204
				l-0.777,0.128c-0.32,0.421,0.59,0.053,0.632,0.377l-0.499,0.336c-0.57,0.113-2.091,0.265-2.607-0.516
				c-0.66-0.277-0.371,0.357-0.537,0.698c-0.399,0.459-0.768-0.135-1.159,0.06c0.012,0.426-0.45,0.396-0.467,0.924l-0.639-0.113
				c-0.359,0.784,0.767,0.137,0.937,0.483c0.34,0.698-0.471,0.234-0.251,0.646c0.49-0.073,0.527-0.438,0.765-0.555
				c0.282-0.054,0.432,0.13,0.423,0.395c-0.787-0.301-0.428,0.561-1.069,0.446l-0.021-0.163c-0.016,0.529-0.931,0.206-1.273,0.463
				c-0.7-0.603,0.567-0.802,0.544-0.965l-0.854,0.166c0.372-0.356-0.004-0.688,0.496-1.023c-0.521,0.171-0.583-0.318-1.082,0.019
				c0.565-0.801-0.702-0.602-0.763-1.093c0.6-0.21,1.705,0.623,1.547,0.703c-0.021-0.165,0.697-0.089,0.973,0.118l0.408-0.724
				c-0.461-0.028-1.089,0.286-0.914-0.321l-0.629,0.315c0.647-0.964,0.615-0.925,1.202-1.346c-1.208-0.778-2.15,0.85-3.143,0.148
				l0.155-0.077c-1.969,0.196-2.435-0.791-2.856-1.908L78.339,12.946z M74.712,14.579l0.425,0.396l-0.648,0.15
				c0.269,0.471,0.719,0.073,1.053,0.082c0.375,0.331-0.862,0.429-1.272,1.151c-0.37,0.358-1.178-0.104-1.043-0.346
				c-0.022,0.792-1.198,0.425-1.647,0.819c-1.08,0.021-0.711-1.027-1.674-0.722l0.347,0.433c-0.854,0.166-1.216,0.261-2.161,0.04
				c-0.112-0.552,0.432,0.129,0.647-0.149l-0.446-0.558c0.205-0.018,0.606-0.476,0.59,0.052c0.007-0.264,0.329-0.685-0.269-0.472
				l0.449-0.397l-0.099-0.155l0.405-0.071c0.169,0.177,0.476,0.158,0.739,0.573c0.02,0.162-0.263,0.218-0.423,0.295
				c0.406,0.231,0.77,0.139,1.003,0.02c-0.638-0.113-0.297-0.371-0.437-0.821c0.392-0.194,1.03-0.081,1.267-0.199
				c0.542,0.19,0.987,0.699,0.626,1.101c0.347-0.215,0.71,0.001,1.078-0.478c-0.684,0.517-0.016-1.118-0.887-0.422
				c-0.259-0.736,0.735-0.454,1.188-0.161c-0.235,0.118-0.037,0.366-0.094,0.566c0.676-0.249,0.358-0.784-0.125-0.975l0.787-0.393
				l-0.078-0.015l0.797-0.168C74.911,14.337,74.932,14.722,74.712,14.579z M60.293,9.309l-0.028-0.003l0.025,0.011L60.293,9.309z"/>
			<path fill="#FFF100" d="M118.757,13.309c0.187-0.181,0.648-0.15,0.558-0.537C119.327,13.196,118.491,12.837,118.757,13.309z"/>
			<path fill="#FFF100" d="M119.309,13.727c0.032-0.103,0.01-0.267,0.217-0.281l-0.569,0.108L119.309,13.727z"/>
			<path fill="#FFF100" d="M119.887,16.638c0.293-0.318,0.48-0.497,0.941-0.469c0.173,1.04-0.755,0.291-0.964,1.26
				c0.846,0.098,1.104-0.809,1.801-0.897C121.32,16.098,119.912,15.848,119.887,16.638z"/>
			<polygon fill="#FFF100" points="119.512,17.951 119.982,17.717 119.935,17.655 119.465,17.89 			"/>
			<path fill="#FFF100" d="M109.33,8.921c-0.042-0.325-0.335-0.005-0.492,0.073C108.965,9.016,109.144,9.102,109.33,8.921z"/>
			<path fill="#FFF100" d="M16.955,8.583L13.37,8.896C14.401,8.814,15.354,8.773,16.955,8.583z"/>
			<path fill="#FFF100" d="M97.43,11.044c0.963-0.306,1.391-0.867,2.372-1.009c-1.29-0.654-1.704,1.022-2.787,0.353L97.43,11.044z"
				/>
			<path fill="#FFF100" d="M97.769,8.452c0.16,0.612-0.743,0.717-0.603,1.166c0.648-0.149,0.302-0.582,0.891-0.53L97.769,8.452z"/>
			<polygon fill="#FFF100" points="102.133,18.566 101.841,18.885 102.076,18.77 			"/>
			<polygon fill="#FFF100" points="93.38,8.995 93.487,8.857 93.004,8.664 			"/>
			<polygon fill="#FFF100" points="93.593,8.717 93.487,8.857 93.487,8.857 			"/>
			<polygon fill="#FFF100" points="101.757,19.879 102.191,20.009 102.406,19.73 			"/>
			<path fill="#FFF100" d="M97.927,16.597l0.389-0.196C98.238,16.438,97.707,16.188,97.927,16.597z"/>
			<polygon fill="#FFF100" points="90.432,8.735 89.959,8.972 90.008,9.031 90.479,8.796 			"/>
			<path fill="#FFF100" d="M94.889,18.283c0.268,0.47-0.774,0.127-0.223,0.543C95.156,18.753,94.958,18.508,94.889,18.283z"/>
			<path fill="#FFF100" d="M89.189,15.093l-0.195,0.07L89.189,15.093z"/>
			<path fill="#FFF100" d="M89.189,15.093c0.206,0,0.411,0.181,0.552,0.045C89.485,14.925,89.392,15.005,89.189,15.093z"/>
			<path fill="#FFF100" d="M86.833,15.203l0.187,0.034c-0.19,0.231-0.101,0.198,0.069,0.011c0.198-0.016,0.187-0.165,0.21-0.267
				l0.121-0.183l-0.162,0.17C86.953,14.965,86.766,14.987,86.833,15.203z"/>
			<path fill="#FFF100" d="M78.078,7.277c0.689,0.175,0.867,0.261,0.83,0.625c0.653,0.117,0.552-0.513,0.947-0.659
				C79.115,7.314,78.964,7.146,78.078,7.277z"/>
			<path fill="#FFF100" d="M79.855,7.243l0.258-0.028L79.855,7.243z"/>
			<polygon fill="#FFF100" points="89.587,19.194 89.159,19.753 89.316,19.676 			"/>
			<path fill="#FFF100" d="M77.056,7.093c0.127,0.022,0.333,0.009,0.433,0.134C77.526,6.858,76.929,7.071,77.056,7.093z"/>
			<path fill="#FFF100" d="M79.712,14.252c0.071,0.225,0.511,0.09,0.69,0.176C80.146,14.381,79.936,13.708,79.712,14.252z"/>
			<path fill="#FFF100" d="M75.081,8.6c0.127,0.023,0.324,0.269,0.239,0.572C75.505,8.991,75.756,8.348,75.081,8.6z"/>
			<polygon fill="#FFF100" points="78.455,14.188 78.552,14.311 79.023,14.075 			"/>
			<path fill="#FFF100" d="M80.136,19.578c0.53-0.436-0.841-1.052,0.072-1.42c-1.178-0.456,0.09,0.617-0.778,0.546
				C79.938,18.852,80.187,19.403,80.136,19.578z"/>
			<path fill="#FFF100" d="M79.429,18.704l-0.241-0.037L79.429,18.704z"/>
			<path fill="#FFF100" d="M71.967,15.946l0.178-0.146L71.967,15.946z"/>
			<path fill="#FFF100" d="M76.654,19.064l0.794-0.654c-0.531,0.435-1.866,0.409-1.783,1.06c0.433,0.134,0.953-0.041,1.167-0.321
				L76.654,19.064z"/>
			<path fill="#FFF100" d="M67.533,7.255l0.343-0.26L67.448,6.92C67.57,7.018,67.349,7.495,67.533,7.255z"/>
			<path fill="#FFF100" d="M67.365,6.906l0.083,0.014L67.365,6.906z"/>
			<path fill="#FFF100" d="M73.471,15.632c0.256,0.045,0.461,0.027,0.696-0.088C74.07,15.421,73.43,15.306,73.471,15.632z"/>
			<polygon fill="#FFF100" points="65.116,8.202 65.682,8.089 65.064,8.138 			"/>
			<polygon fill="#FFF100" points="62.472,7.093 62.374,6.972 61.904,7.204 62.003,7.327 			"/>
			<path fill="#FFF100" d="M65.93,19.91c0.384,0.07,0.684-0.516,0.584-0.639l-0.745,0.024c0.189,0.513,0.207-0.015,0.638,0.115
				L65.93,19.91z"/>
			<path fill="#FFF100" d="M42.845,8.051c0.167-0.342,0.982-0.144,1.024,0.182c-0.109,0.14-0.551,0.275-0.273,0.482l0.645-0.84
				c0.857,0.523-0.652,1.105-1.075,1.4c0.874,0.108,1.132-0.443,2.062-0.44C44.952,8.76,44.779,8.55,44.634,8.37
				c-0.032-0.592,0.834-0.33,1.453-0.376c-0.394-0.257-0.166-0.473,0.121-0.706l0.11-0.092l0.098-0.082l-0.074,0.001l-0.064-0.257
				c-0.52,0.173-0.917-0.32-1.25-0.328c0.33,0.961-1.139,0.223-1.559,0.518l-0.486,0.095l-0.181,0.002
				c-0.037-0.105,0.015-0.237,0.292-0.428c-0.231,0.189-1.002,0.123-0.93,0.432l-1.759,0.014l-0.15-0.157
				c-0.061,0.061-0.07,0.11-0.063,0.159l-7.661,0.063c0.378,0.074,0.705,0.295,1.095,0.4c-0.585,0.639,0.638,0.115,0.467,0.718
				c-0.263,0.22-0.647,0.15-0.876,0.005c-0.086,0.304,0.241,0.574,0.203,0.938c0.966,0.384,1.115-1.076,2.059-0.853
				c-0.037,0.364-0.329,0.684,0.29,0.634l-0.158,0.079c0.99-0.409,0.771,0.826,1.395-0.176L36.987,9.5
				c0.449-0.396,1.322-0.4,1.815-0.474l-0.03,0.102c1.382-0.603,0.776-0.127,2.327-0.38l-0.713,0.614
				c0.535,0.255,0.656-0.413,1.04-0.345c-0.027,0.102,0.062,0.487-0.301,0.584l1.882-0.938C43.456,8.266,42.915,8.275,42.845,8.051z
				"/>
			<path fill="#FFF100" d="M45.226,8.835l0.346,0.021L45.226,8.835z"/>
			<path fill="#FFF100" d="M31.991,7.23l0.538-0.004C32.362,7.193,32.189,7.184,31.991,7.23z"/>
			<path fill="#FFF100" d="M47.924,7.684c-0.327-0.272,0.244-0.382,0.301-0.584l-1.169,0.01c0.006,0.204-0.11,0.431-0.087,0.617
				L47.924,7.684z"/>
			<path fill="#FFF100" d="M46.718,6.727c-0.04,0.141-0.163,0.268-0.302,0.388l0.64-0.005C47.052,6.956,46.98,6.818,46.718,6.727z"
				/>
			<polygon fill="#FFF100" points="46.842,17.567 46.635,17.585 46.322,17.742 			"/>
			<path fill="#FFF100" d="M43.605,16.673c0.248,0.31,0.716,0.075,0.873-0.002C43.938,16.678,44.172,16.563,43.605,16.673z"/>
			<polygon fill="#FFF100" points="44.273,19.975 43.752,20.148 43.801,20.209 			"/>
			<path fill="#FFF100" d="M28.013,9.306L27.758,9.34L28.013,9.306z"/>
			<path fill="#FFF100" d="M32.482,8.804c-1.242-0.593,0.814-0.493,0.424-1.251L32.23,7.804l0.058-0.202l-0.825,0.065
				c0.169,0.349,0.296,0.369,0.26,0.735c-1.101-0.143-0.347-0.434-1.154-0.895l-1.231,0.066l0.1-0.109
				c-0.104,0.008-0.149,0.055-0.185,0.113l-4.146,0.228c-0.754,0.29,0.417,0.658-0.139,1.195c0.875-0.002,2.174,0.388,2.248-0.342
				c-0.029,0.101-0.087,0.301,0.09,0.387l0.506-0.6l-0.482-0.19c0.508-0.598,2.15-0.465,2.447-0.094
				c-0.934,0.204-0.465,0.925-1.766,0.532c0.059,0.186,0.297,0.51,0.004,0.611C29.538,9.093,30.904,9.425,32.482,8.804z"/>
			<path fill="#FFF100" d="M17.192,9.153l0.013-0.065L17.192,9.153z"/>
			<path fill="#FFF100" d="M17.704,9.243l0.743-0.714l-1.158,0.058l-0.084,0.501c0.102-0.128,0.508-0.381,0.666-0.185L17.704,9.243z
				"/>
			<path fill="#FFF100" d="M19.31,8.098c-0.598,0.213-0.565,0.803-0.239,1.071c-0.549,0.273-0.29-0.633-0.669-0.011
				c0.013,0.426,0.69,0.176,0.845,0.098L19.31,8.098z"/>
			<polygon fill="#FFF100" points="23.724,8.408 23.556,8.653 23.97,8.717 			"/>
			<polygon fill="#FFF100" points="23.556,8.653 23.144,8.587 23.268,9.069 			"/>
			<path fill="#FFF100" d="M22.065,8.417l-0.602-0.094L22.065,8.417z"/>
			<polygon fill="#FFF100" points="22.535,8.567 22.521,8.49 22.065,8.417 			"/>
			<path fill="#FFF100" d="M23.144,8.587c-0.067-0.414-0.145-0.848-0.74-0.731l0.117,0.635L23.144,8.587z"/>
			<polygon fill="#FFF100" points="40.485,19.352 40.015,19.585 40.064,19.649 40.534,19.415 			"/>
			<path fill="#FFF100" d="M37.771,18.975l-0.285,0.228L37.771,18.975z"/>
			<path fill="#FFF100" d="M35.752,21.796c-0.553-0.415,0.763-0.549-0.261-0.733c-0.091-0.387,0.39-0.886,0.872-0.692
				c-0.038,0.363-0.47,0.233-0.174,0.604c0.321-0.421,0.442-0.135,0.331-0.684c0.54-0.342,0.599-0.732,0.965-1.089
				c-0.652,0.24-2.021-0.322-2.847,0.382c-0.457,0.659-0.179,1.561-0.182,2.514C34.526,22.322,35.708,22.428,35.752,21.796z"/>
			<path fill="#FFF100" d="M36.624,22.748c0.255,0.047,0.334,0.009,0.491-0.071C37.072,22.352,36.83,22.733,36.624,22.748z"/>
			<path fill="#FFF100" d="M30.738,15.571c-0.049,0.136-0.513,0.304-0.413,0.538l0.703-0.171
				C30.862,15.916,30.805,15.75,30.738,15.571z"/>
			<path fill="#FFF100" d="M31.335,15.865l-0.308,0.073C31.104,15.95,31.199,15.932,31.335,15.865z"/>
			<path fill="#FFF100" d="M30.704,15.487l0.034,0.084L30.704,15.487z"/>
			<path fill="#FFF100" d="M20.36,8.179c0.01-0.26-0.303-0.104-0.46-0.027C20.027,8.173,20.207,8.26,20.36,8.179z"/>
			<path fill="#FFF100" d="M8.576,9.209L8.299,9C8.397,9.125,8.448,9.188,8.576,9.209z"/>
			<path fill="#FFF100" d="M4.314,16.355l-0.056,0.132L4.314,16.355z"/>
			<path fill="#FFF100" d="M4.258,16.487c-0.189,0.217-0.772-0.121-0.982,0.208l0.027-0.099l-0.391,0.195
				C3.278,16.763,4.047,16.805,4.258,16.487z"/>
		</g>
	</g>
</g>
<rect x="7.313" y="2.378" fill="none" width="75.38" height="13.462"/>
<text transform="matrix(1 0 0 1 7.313 9.2534)" font-family="'uzura_font'" font-size="8"></text>
<rect x="55.563" fill="none" width="75.38" height="13.462"/>
<text transform="matrix(1 0 0 1 55.5625 10.3125)" font-family="'uzura_font'" font-size="12"></text>
<rect x="16.479" y="26.583" fill="none" width="101.213" height="13.462"/>
<text transform="matrix(1 0 0 1 16.4795 36.896)"><tspan x="0" y="0" font-family="'uzura_font'" font-size="12"></tspan><tspan x="84" y="0" font-family="'uzura_font'" font-size="12" letter-spacing="-3"></tspan></text>
<rect x="112.313" y="22.212" fill="none" width="261.88" height="17.629"/>
<text transform="matrix(1 0 0 1 104.3125 35.9624)"><tspan x="0" y="0" font-family="'uzura_font'" font-size="16"></tspan><tspan x="240" y="0" font-family="'uzura_font'" font-size="16" letter-spacing="-8"></tspan></text>
</svg>
